<?xml version="1.0" encoding="utf-8"?>
<!-- Generator: Adobe Illustrator 17.0.2, SVG Export Plug-In . SVG Version: 6.00 Build 0)  -->
<!DOCTYPE svg PUBLIC "-//W3C//DTD SVG 1.1//EN" "http://www.w3.org/Graphics/SVG/1.1/DTD/svg11.dtd">
<svg version="1.1" id="Calque_1" xmlns="http://www.w3.org/2000/svg" xmlns:xlink="http://www.w3.org/1999/xlink" x="0px" y="0px"
	 width="251.333px" height="51.333px" viewBox="0 -1.667 251.333 51.333" enable-background="new 0 -1.667 251.333 51.333"
	 xml:space="preserve">
<path fill="#5F5F5E" d="M91.035,4.605c0,0-18.046-4.533-23.285,4.605c-5.543,9.669,11.575,9.792,11.575,9.792l-1.766,2.726
	c-13.784-0.868-23.383,7.574-23.405,14.853c-0.036,12.348,24.595,2.692,24.595,2.692l-2.611,5.106
	c-10.985,6.249-36.129,7.925-32.846-7.231c3.195-14.751,20.375-17.464,20.375-17.464s-8.663-3.636-3.743-11.23
	c9.34-14.415,33.26-7.379,33.26-7.379L91.035,4.605z"/>
<path fill="#5F5F5E" d="M103.677,21.287h7.716l1.524-4.475h-6.595c3.204-5.442,5.633-9.642,5.633-9.642h-8.823L82.437,41.019
	c0,0-1.524,3.208,0.642,5.294c2.166,2.086,5.534,4.411,17.245-2.005l1.844-5.053c0,0-3.477,2.118-6.06,3.016
	c-3.361,1.169-5.339-0.284-2.923-3.899C95.669,34.656,99.875,27.694,103.677,21.287z"/>
<path fill="#5F5F5E" d="M139.171,38.399c3.689-5.722,9.839-17.646,9.839-17.646s-9.387-0.538-12.406-0.534
	c-1.828,0.002-18.584,1.192-25.726,11.651c-16.576,24.277,13.695,15.298,17.694,11.719c0,0-1.753,4.275,2.525,4.275
	c4.278,0,12.513-3.369,12.513-3.369l1.658-4.331C145.267,40.163,135.482,44.12,139.171,38.399z M129.653,40.27
	c0,0-1.773,2.097-7.25,3.209c-12.112,2.459-6.864-8.043-3.338-12.125c5.508-6.377,12.727-8.623,17.111-8.89s2.727,1.658,2.727,1.658
	L129.653,40.27z"/>
<path fill="#5F5F5E" d="M154.184,47.267h-8.406l16.165-26.43h9.053l-2.506,4.041c0,0,11.029-5.012,16.731-5.012
	c5.415,0,3.637,5.092,3.637,5.092s8.163-4.364,13.094-4.364s6.547,2.182,3.556,7.274c-2.99,5.092-11.396,19.398-11.396,19.398
	h-9.133l11.316-18.429c0,0,4.642-5.918-4.128-2.562c-5.402,2.067-6.522,3.151-6.522,3.151l-12.062,17.84h-7.921l10.734-17.701
	c0,0,3.95-6.513-3.783-3.476c-5.529,2.172-6.049,2.678-6.049,2.678L154.184,47.267z"/>
</svg>
