<?xml version="1.0" encoding="utf-8"?>
<!-- Generator: Adobe Illustrator 17.0.2, SVG Export Plug-In . SVG Version: 6.00 Build 0)  -->
<!DOCTYPE svg PUBLIC "-//W3C//DTD SVG 1.1//EN" "http://www.w3.org/Graphics/SVG/1.1/DTD/svg11.dtd">
<svg version="1.1" id="Layer_1" xmlns="http://www.w3.org/2000/svg" xmlns:xlink="http://www.w3.org/1999/xlink" x="0px" y="0px"
	 width="61.5px" height="61.5px" viewBox="19.25 19.25 61.5 61.5" enable-background="new 19.25 19.25 61.5 61.5"
	 xml:space="preserve">
<g>
	<path fill="#FFFFFF" d="M50,19.25c-16.953,0-30.75,13.796-30.75,30.751C19.25,66.956,33.047,80.75,50,80.75
		c16.957,0,30.75-13.794,30.75-30.749C80.75,33.046,66.957,19.25,50,19.25z M65.682,55.718c-0.693,0.692-1.816,0.692-2.509,0
		L50,42.546L36.83,55.718c-0.693,0.692-1.815,0.692-2.509,0c-0.693-0.693-0.693-1.815,0-2.509l14.424-14.425
		c0.692-0.693,1.815-0.693,2.509,0l14.427,14.425c0.346,0.347,0.52,0.801,0.52,1.255C66.202,54.917,66.028,55.371,65.682,55.718z"/>
</g>
</svg>
