<?xml version="1.0" encoding="utf-8"?>
<!-- Generator: Adobe Illustrator 17.0.2, SVG Export Plug-In . SVG Version: 6.00 Build 0)  -->
<!DOCTYPE svg PUBLIC "-//W3C//DTD SVG 1.1//EN" "http://www.w3.org/Graphics/SVG/1.1/DTD/svg11.dtd">
<svg version="1.1" id="Layer_1" xmlns="http://www.w3.org/2000/svg" xmlns:xlink="http://www.w3.org/1999/xlink" x="0px" y="0px"
	 width="100px" height="100px" viewBox="0 0 100 100" enable-background="new 0 0 100 100" xml:space="preserve">
<g>
	<g>
		<g>
			<path fill="#FFFFFF" d="M100,49.999C100,22.43,77.566,0,50,0C22.428,0,0,22.43,0,49.999S22.428,100,50,100
				C77.566,100,100,77.568,100,49.999z M5.769,49.999C5.769,25.61,25.611,5.77,50,5.77s44.231,19.84,44.231,44.229
				c0,24.39-19.843,44.231-44.231,44.231S5.769,74.389,5.769,49.999z"/>
		</g>
	</g>
	<g>
		<g>
			<path fill="#FFFFFF" d="M75.493,44.782c1.127-1.127,1.127-2.952,0-4.079c-1.127-1.126-2.952-1.126-4.079,0L50,62.121
				L28.58,40.703c-1.126-1.126-2.952-1.126-4.079,0c-0.563,0.563-0.845,1.302-0.845,2.04c0,0.738,0.282,1.476,0.845,2.04
				L47.96,68.238c1.127,1.127,2.953,1.127,4.079,0L75.493,44.782z"/>
		</g>
	</g>
</g>
</svg>
