<?xml version="1.0" encoding="utf-8"?>
<!-- Generator: Adobe Illustrator 17.0.2, SVG Export Plug-In . SVG Version: 6.00 Build 0)  -->
<!DOCTYPE svg PUBLIC "-//W3C//DTD SVG 1.1//EN" "http://www.w3.org/Graphics/SVG/1.1/DTD/svg11.dtd">
<svg version="1.1" id="Calque_1" xmlns="http://www.w3.org/2000/svg" xmlns:xlink="http://www.w3.org/1999/xlink" x="0px" y="0px"
	 width="251.333px" height="51.333px" viewBox="0 -1.667 251.333 51.333" enable-background="new 0 -1.667 251.333 51.333"
	 xml:space="preserve">
<g>
	<g>
		<g>
			<defs>
				<rect id="SVGID_1_" x="-16" y="-17.131" width="283.465" height="81.406"/>
			</defs>
			<clipPath id="SVGID_2_">
				<use xlink:href="#SVGID_1_"  overflow="visible"/>
			</clipPath>
			<path clip-path="url(#SVGID_2_)" fill="#5F5E5E" d="M92.801,19.789c0.751-0.876,2.279-2.659,5.773-2.659
				c0.995,0,2.174,0.169,3.243,0.772c1.21,0.711,1.566,1.551,1.85,2.259c0.573-0.708,1.038-1.278,1.999-1.888
				c1.423-0.905,2.956-1.143,3.954-1.143c1.888,0,3.279,0.641,4.098,1.414c1.352,1.314,1.39,2.962,1.39,4.343V34.87h-4.775V22.887
				c0-0.639-0.038-1.551-0.75-2.257c-0.463-0.469-1.209-0.74-1.958-0.74c-1.033,0-2.033,0.471-2.708,1.145
				c-0.465,0.438-0.715,0.843-0.961,1.279V34.87h-4.778V23.055c0-0.472-0.034-1.616-0.819-2.39c-0.463-0.473-1.21-0.775-1.995-0.775
				c-0.496,0-1.459,0.1-2.529,1.077c-0.572,0.506-0.784,0.911-1.034,1.348V34.87h-4.774V17.636h4.774V19.789z"/>
		</g>
	</g>
	<g>
		<g>
			<defs>
				<rect id="SVGID_3_" x="-16" y="-17.131" width="283.465" height="81.406"/>
			</defs>
			<clipPath id="SVGID_4_">
				<use xlink:href="#SVGID_3_"  overflow="visible"/>
			</clipPath>
			<path clip-path="url(#SVGID_4_)" fill="#5F5E5E" d="M130.963,24.064c-0.211-1.549-0.604-4.376-4.167-4.376
				c-3.421,0-4.135,2.659-4.597,4.376H130.963z M135.562,30.155c-0.785,1.887-2.246,5.419-8.518,5.419
				c-6.555,0-10.012-4.273-10.012-9.558c0-5.05,3.422-9.156,9.87-9.156c1.567,0,4.418,0.235,6.627,2.324
				c2.531,2.422,2.567,5.619,2.601,7.506h-14.038c0.179,1.278,0.783,6.025,6.414,6.025c3.314,0,4.631-1.582,5.879-3.098
				L135.562,30.155z"/>
		</g>
	</g>
	<g>
		<g>
			<defs>
				<rect id="SVGID_5_" x="-16" y="-17.131" width="283.465" height="81.406"/>
			</defs>
			<clipPath id="SVGID_6_">
				<use xlink:href="#SVGID_5_"  overflow="visible"/>
			</clipPath>
			<path clip-path="url(#SVGID_6_)" fill="#5F5E5E" d="M139.479,12.957h4.742v4.679h4.166v2.692h-4.166v8.82
				c0,1.445,0.213,2.151,0.569,2.727c0.855,1.516,2.282,1.516,2.637,1.516c0.748,0,1.248-0.171,1.817-0.341l0.568,1.078
				c-1.068,0.607-2.35,1.381-4.703,1.381c-0.854,0-2.742-0.103-4.129-1.414c-1.322-1.212-1.502-2.729-1.502-4.239v-9.527h-2.886
				v-2.692h2.886v-4.68H139.479z"/>
		</g>
	</g>
	<g>
		<g>
			<defs>
				<rect id="SVGID_7_" x="-16" y="-17.131" width="283.465" height="81.406"/>
			</defs>
			<clipPath id="SVGID_8_">
				<use xlink:href="#SVGID_7_"  overflow="visible"/>
			</clipPath>
			<path clip-path="url(#SVGID_8_)" fill="#5F5E5E" d="M156.26,19.789c0.712-0.876,2.173-2.659,5.415-2.659
				c0.464,0,0.929,0.036,1.355,0.101v3.905c-0.891-0.403-1.816-0.808-3.135-0.808c-1.747,0-2.816,0.673-3.635,1.178V34.87h-4.775
				V17.636h4.775V19.789z"/>
		</g>
	</g>
	<g>
		<g>
			<defs>
				<rect id="SVGID_9_" x="-16" y="-17.131" width="283.465" height="81.406"/>
			</defs>
			<clipPath id="SVGID_10_">
				<use xlink:href="#SVGID_9_"  overflow="visible"/>
			</clipPath>
			<path clip-path="url(#SVGID_10_)" fill="#5F5E5E" d="M167.698,26.187c0,3.904,1.425,6.664,4.382,6.664
				c2.994,0,4.416-2.896,4.416-6.43c0-3.838-1.314-6.731-4.416-6.731C169.159,19.689,167.698,22.449,167.698,26.187 M181.523,26.151
				c0,4.814-2.957,9.422-9.654,9.422c-5.561,0-9.191-3.666-9.191-9.252c0-6.834,5.199-9.327,9.332-9.393
				C176.855,16.861,181.523,19.891,181.523,26.151"/>
		</g>
	</g>
	<g>
		<g>
			<defs>
				<rect id="SVGID_11_" x="-16" y="-17.131" width="283.465" height="81.406"/>
			</defs>
			<clipPath id="SVGID_12_">
				<use xlink:href="#SVGID_11_"  overflow="visible"/>
			</clipPath>
			<path clip-path="url(#SVGID_12_)" fill="#5F5E5E" d="M187.94,30.661c0.567,0.809,1.529,2.152,3.88,2.152
				c3.422,0,4.562-3.33,4.562-6.425c0-3.906-1.533-6.803-4.704-6.803c-2.101,0-3.099,1.179-3.738,1.92V30.661z M187.94,19.318
				c0.747-0.705,2.599-2.39,5.841-2.39c4.634,0,7.483,3.566,7.483,9.323c0,6.364-3.813,9.321-7.768,9.321
				c-3.205,0-4.703-1.646-5.556-2.589v8.48h-4.739V17.637h4.739V19.318z"/>
		</g>
	</g>
	<g>
		<g>
			<defs>
				<rect id="SVGID_13_" x="-16" y="-17.131" width="283.465" height="81.406"/>
			</defs>
			<clipPath id="SVGID_14_">
				<use xlink:href="#SVGID_13_"  overflow="visible"/>
			</clipPath>
			<path clip-path="url(#SVGID_14_)" fill="#5F5E5E" d="M208,26.187c0,3.904,1.422,6.664,4.38,6.664c2.994,0,4.419-2.896,4.419-6.43
				c0-3.838-1.318-6.731-4.419-6.731C209.458,19.689,208,22.449,208,26.187 M221.822,26.151c0,4.814-2.958,9.422-9.658,9.422
				c-5.559,0-9.191-3.666-9.191-9.252c0-6.834,5.203-9.327,9.334-9.393C217.156,16.861,221.822,19.891,221.822,26.151"/>
		</g>
	</g>
	<g>
		<g>
			<defs>
				<rect id="SVGID_15_" x="-16" y="-17.131" width="283.465" height="81.406"/>
			</defs>
			<clipPath id="SVGID_16_">
				<use xlink:href="#SVGID_15_"  overflow="visible"/>
			</clipPath>
			<path clip-path="url(#SVGID_16_)" fill="#5F5E5E" d="M232.873,33.753c-0.573,0.168-0.758,0.159-1.505,0.159
				c-0.355,0-1.783,0-2.637-1.513c-0.298-0.477-0.494-1.057-0.55-2.072v-17.53h-4.757v17.585h-0.006
				c0,1.512,0.182,3.026,1.502,4.238c1.386,1.312,3.274,1.414,4.131,1.414c2.352,0,3.319-0.597,4.388-1.203L232.873,33.753z"/>
		</g>
	</g>
	<g>
		<g>
			<defs>
				<rect id="SVGID_17_" x="-16" y="-17.131" width="283.465" height="81.406"/>
			</defs>
			<clipPath id="SVGID_18_">
				<use xlink:href="#SVGID_17_"  overflow="visible"/>
			</clipPath>
			<path clip-path="url(#SVGID_18_)" fill="#5F5E5E" d="M245.147,24.064c-0.216-1.549-0.61-4.376-4.171-4.376
				c-3.42,0-4.131,2.659-4.596,4.376H245.147z M249.742,30.155c-0.782,1.887-2.244,5.419-8.519,5.419
				c-6.555,0-10.011-4.273-10.011-9.558c0-5.05,3.422-9.156,9.87-9.156c1.569,0,4.42,0.235,6.63,2.324
				c2.527,2.422,2.562,5.619,2.601,7.506h-14.04c0.177,1.278,0.785,6.025,6.416,6.025c3.31,0,4.629-1.582,5.879-3.098
				L249.742,30.155z"/>
		</g>
	</g>
</g>
<polygon fill="#5F5E5E" points="127.574,12.428 131.324,14.202 122.368,16.305 121.916,15.161 "/>
<g>
	<g>
		<g>
			<defs>
				<rect id="SVGID_19_" x="-16" y="-17.131" width="283.465" height="81.406"/>
			</defs>
			<clipPath id="SVGID_20_">
				<use xlink:href="#SVGID_19_"  overflow="visible"/>
			</clipPath>
			<path clip-path="url(#SVGID_20_)" fill="#5F5E5E" d="M81.601,18.418C80.953,8.75,64.298,1.997,44.406,3.331
				c-13.32,0.893-24.708,5.189-30.59,10.831c6.002-2.808,13.716-4.768,22.22-5.336c19.893-1.335,36.547,5.419,37.193,15.084
				c0.213,3.193-1.356,6.306-4.259,9.09C77.009,29.24,81.972,23.953,81.601,18.418"/>
		</g>
	</g>
	<g>
		<g>
			<defs>
				<rect id="SVGID_21_" x="-16" y="-17.131" width="283.465" height="81.406"/>
			</defs>
			<clipPath id="SVGID_22_">
				<use xlink:href="#SVGID_21_"  overflow="visible"/>
			</clipPath>
			<path clip-path="url(#SVGID_22_)" fill="#5F5E5E" d="M38.385,43.83c-19.05,0.146-34.63-5.246-37.196-15.087
				C1.837,38.408,17.896,45.655,38.385,43.83"/>
		</g>
	</g>
</g>
<rect x="27.629" y="25.174" transform="matrix(-0.2967 0.955 -0.955 -0.2967 63.1052 6.751)" fill="#5F5E5E" width="2.875" height="2.877"/>
<rect x="31.025" y="29.927" transform="matrix(-0.1075 0.9942 -0.9942 -0.1075 67.1357 2.462)" fill="#5F5E5E" width="2.875" height="2.876"/>
<rect x="24.901" y="20.112" transform="matrix(-0.1082 0.9941 -0.9941 -0.1082 50.6133 -2.3015)" fill="#5F5E5E" width="2.876" height="2.877"/>
<rect x="19.809" y="22.987" transform="matrix(-0.0066 1 -1 -0.0066 45.8116 3.3412)" fill="#5F5E5E" width="2.875" height="2.877"/>
<rect x="13.018" y="18.037" transform="matrix(-0.108 0.9942 -0.9942 -0.108 35.3794 7.2076)" fill="#5F5E5E" width="2.877" height="2.877"/>
<rect x="18.31" y="17.466" transform="matrix(0.3998 0.9166 -0.9166 0.3998 29.1809 -6.7558)" fill="#5F5E5E" width="2.879" height="2.877"/>
<rect x="32.086" y="20.67" transform="matrix(0.0943 0.9955 -0.9955 0.0943 52.9199 -13.377)" fill="#5F5E5E" width="3.452" height="3.453"/>
<rect x="38.728" y="17.12" transform="matrix(0.0944 0.9955 -0.9955 0.0944 55.3953 -23.2061)" fill="#5F5E5E" width="3.45" height="3.451"/>
<rect x="36.254" y="25.975" transform="matrix(0.3333 0.9428 -0.9428 0.3333 51.993 -17.4342)" fill="#5F5E5E" width="4.141" height="4.142"/>
<rect x="43.243" y="20.264" transform="matrix(0.5164 0.8563 -0.8563 0.5164 44.0181 -28.8312)" fill="#5F5E5E" width="8.588" height="8.589"/>
<rect x="53.534" y="27.923" transform="matrix(0.5166 0.8562 -0.8562 0.5166 56.688 -34.2601)" fill="#5F5E5E" width="10.305" height="10.305"/>
<rect x="37.952" y="33.151" transform="matrix(0.7301 0.6833 -0.6833 0.7301 36.9884 -18.7618)" fill="#5F5E5E" width="8.589" height="8.588"/>
<g>
	<g>
		<g>
			<defs>
				<rect id="SVGID_23_" x="-16" y="-17.131" width="283.465" height="81.406"/>
			</defs>
			<clipPath id="SVGID_24_">
				<use xlink:href="#SVGID_23_"  overflow="visible"/>
			</clipPath>
			<path clip-path="url(#SVGID_24_)" fill="#5F5E5E" d="M88.184,7.746c0.193,0.386,0.386,0.787,0.773,1.174
				c0.64,0.624,1.517,0.892,2.409,0.892c1.487,0,2.215-0.906,2.215-1.799c0-1.13-0.907-1.457-2.185-1.709
				c-1.19-0.239-3.405-0.685-3.405-3.094c0-1.159,0.639-3.271,4.044-3.271c0.432,0,1.874,0.015,2.781,0.951
				c0.639,0.655,0.713,1.383,0.758,1.74l-0.61,0.164c-0.133-0.327-0.252-0.58-0.52-0.848c-0.461-0.445-1.189-0.743-2.097-0.743
				c-1.189,0-2.245,0.535-2.245,1.62c0,0.12,0.015,0.312,0.089,0.506c0.312,0.773,1.116,0.936,2.246,1.16
				c0.729,0.163,1.814,0.417,2.498,1.1c0.505,0.476,0.833,1.205,0.833,2.022c0,0.906-0.387,1.739-0.922,2.305
				c-1.131,1.176-2.87,1.176-3.316,1.176c-0.536,0-1.993-0.03-2.989-1.026c-0.729-0.715-0.862-1.561-0.952-2.111L88.184,7.746z"/>
		</g>
	</g>
</g>
<path fill="#5F5E5E" d="M104.623,3.671l-1.516,3.405h3.078L104.623,3.671z M104.579,0.28h0.729l4.817,10.498h-2.26l-1.041-2.319
	h-4.342l-1.04,2.319h-1.844L104.579,0.28z"/>
<rect x="114.804" y="0.28" fill="#5F5E5E" width="2.126" height="10.498"/>
<g>
	<g>
		<g>
			<defs>
				<rect id="SVGID_25_" x="-16" y="-17.131" width="283.465" height="81.406"/>
			</defs>
			<clipPath id="SVGID_26_">
				<use xlink:href="#SVGID_25_"  overflow="visible"/>
			</clipPath>
			<path clip-path="url(#SVGID_26_)" fill="#5F5E5E" d="M124.074,0.28h1.889l5.293,5.947c0.148,0.194,0.193,0.254,0.402,0.477V0.28
				h1.664v10.617h-0.52l-7.034-7.851v7.731h-1.695V0.28H124.074z"/>
		</g>
	</g>
</g>
<polygon fill="#5F5E5E" points="139,0.28 147.342,0.28 147.342,1.723 144.234,1.723 144.234,10.778 142.107,10.778 142.107,1.723 
	139,1.723 "/>
<rect x="151.441" y="6.154" fill="#5F5E5E" width="4.283" height="1.279"/>
<polygon fill="#5F5E5E" points="161.783,0.266 168.355,0.266 168.355,1.708 163.91,1.708 163.91,4.623 167.805,4.623 167.805,6.065 
	163.91,6.065 163.91,9.351 168.98,9.351 168.98,10.779 161.783,10.779 "/>
<polygon fill="#5F5E5E" points="173.705,0.28 182.047,0.28 182.047,1.723 178.939,1.723 178.939,10.778 176.812,10.778 
	176.812,1.723 173.705,1.723 "/>
<rect x="187.602" y="0.28" fill="#5F5E5E" width="2.127" height="10.498"/>
<polygon fill="#5F5E5E" points="196.872,0.266 203.445,0.266 203.445,1.708 198.999,1.708 198.999,4.623 202.894,4.623 
	202.894,6.065 198.999,6.065 198.999,9.351 204.069,9.351 204.069,10.779 196.872,10.779 "/>
<g>
	<g>
		<g>
			<defs>
				<rect id="SVGID_27_" x="-16" y="-17.131" width="283.465" height="81.406"/>
			</defs>
			<clipPath id="SVGID_28_">
				<use xlink:href="#SVGID_27_"  overflow="visible"/>
			</clipPath>
			<path clip-path="url(#SVGID_28_)" fill="#5F5E5E" d="M210.16,0.28h1.889l5.293,5.947c0.149,0.194,0.194,0.254,0.402,0.477V0.28
				h1.665v10.617h-0.521l-7.033-7.851v7.731h-1.695L210.16,0.28L210.16,0.28z"/>
		</g>
	</g>
	<g>
		<g>
			<defs>
				<rect id="SVGID_29_" x="-16" y="-17.131" width="283.465" height="81.406"/>
			</defs>
			<clipPath id="SVGID_30_">
				<use xlink:href="#SVGID_29_"  overflow="visible"/>
			</clipPath>
			<path clip-path="url(#SVGID_30_)" fill="#5F5E5E" d="M226.476,0.28h1.889l5.293,5.947c0.149,0.194,0.194,0.254,0.402,0.477V0.28
				h1.665v10.617h-0.521l-7.034-7.851v7.731h-1.694V0.28z"/>
		</g>
	</g>
</g>
<polygon fill="#5F5E5E" points="242.956,0.266 249.528,0.266 249.528,1.708 245.082,1.708 245.082,4.623 248.977,4.623 
	248.977,6.065 245.082,6.065 245.082,9.351 250.152,9.351 250.152,10.779 242.956,10.779 "/>
<g>
	<g>
		<g>
			<defs>
				<rect id="SVGID_31_" x="-16" y="-17.131" width="283.465" height="81.406"/>
			</defs>
			<clipPath id="SVGID_32_">
				<use xlink:href="#SVGID_31_"  overflow="visible"/>
			</clipPath>
			<path clip-path="url(#SVGID_32_)" fill="#5F5E5E" d="M91.698,46.098c-0.077,0.262-0.379,1.239-1.659,1.239
				c-1.031,0-2.046-0.706-2.046-2.107c0-1.248,0.76-2.195,2.054-2.195c1.356,0,1.589,1.009,1.651,1.278l-0.263,0.095
				c-0.14-0.281-0.388-0.79-1.108-0.79c-0.66,0-1.233,0.558-1.233,1.571c0,0.9,0.472,1.559,1.224,1.559
				c0.698,0,0.969-0.496,1.117-0.752L91.698,46.098z"/>
		</g>
	</g>
	<g>
		<g>
			<defs>
				<rect id="SVGID_33_" x="-16" y="-17.131" width="283.465" height="81.406"/>
			</defs>
			<clipPath id="SVGID_34_">
				<use xlink:href="#SVGID_33_"  overflow="visible"/>
			</clipPath>
			<path clip-path="url(#SVGID_34_)" fill="#5F5E5E" d="M95.138,45.172c0,0.901,0.31,1.537,0.953,1.537
				c0.651,0,0.961-0.669,0.961-1.479c0-0.884-0.287-1.55-0.961-1.55C95.455,43.68,95.138,44.312,95.138,45.172 M98.144,45.167
				c0,1.108-0.644,2.17-2.101,2.17c-1.209,0-2-0.846-2-2.132c0-1.575,1.132-2.146,2.031-2.163
				C97.129,43.026,98.144,43.726,98.144,45.167"/>
		</g>
	</g>
	<g>
		<g>
			<defs>
				<rect id="SVGID_35_" x="-16" y="-17.131" width="283.465" height="81.406"/>
			</defs>
			<clipPath id="SVGID_36_">
				<use xlink:href="#SVGID_35_"  overflow="visible"/>
			</clipPath>
			<path clip-path="url(#SVGID_36_)" fill="#5F5E5E" d="M101.933,43.701c0.163-0.202,0.496-0.612,1.256-0.612
				c0.217,0,0.472,0.038,0.705,0.178c0.263,0.164,0.341,0.357,0.403,0.521c0.124-0.164,0.225-0.294,0.434-0.435
				c0.31-0.21,0.643-0.264,0.86-0.264c0.412,0,0.714,0.147,0.891,0.326c0.296,0.302,0.303,0.682,0.303,1v2.758h-1.039v-2.758
				c0-0.148-0.008-0.358-0.163-0.521c-0.1-0.107-0.263-0.17-0.426-0.17c-0.225,0-0.442,0.108-0.589,0.264
				c-0.101,0.101-0.155,0.192-0.209,0.294v2.891h-1.039v-2.72c0-0.108-0.007-0.372-0.178-0.551
				c-0.101-0.107-0.263-0.178-0.434-0.178c-0.108,0-0.318,0.023-0.55,0.248c-0.124,0.116-0.171,0.208-0.225,0.31v2.891h-1.039
				v-3.968h1.039C101.933,43.205,101.933,43.701,101.933,43.701z"/>
		</g>
	</g>
	<g>
		<g>
			<defs>
				<rect id="SVGID_37_" x="-16" y="-17.131" width="283.465" height="81.406"/>
			</defs>
			<clipPath id="SVGID_38_">
				<use xlink:href="#SVGID_37_"  overflow="visible"/>
			</clipPath>
			<path clip-path="url(#SVGID_38_)" fill="#5F5E5E" d="M110.881,43.701c0.162-0.202,0.496-0.612,1.256-0.612
				c0.217,0,0.473,0.038,0.705,0.178c0.264,0.164,0.341,0.357,0.403,0.521c0.124-0.164,0.225-0.294,0.434-0.435
				c0.31-0.21,0.643-0.264,0.86-0.264c0.411,0,0.714,0.147,0.892,0.326c0.294,0.302,0.302,0.682,0.302,1v2.758h-1.039v-2.758
				c0-0.148-0.007-0.358-0.162-0.521c-0.101-0.107-0.264-0.17-0.427-0.17c-0.224,0-0.441,0.108-0.589,0.264
				c-0.1,0.101-0.155,0.192-0.209,0.294v2.891h-1.038v-2.72c0-0.108-0.008-0.372-0.179-0.551c-0.1-0.107-0.263-0.178-0.434-0.178
				c-0.108,0-0.317,0.023-0.551,0.248c-0.124,0.116-0.169,0.208-0.224,0.31v2.891h-1.039v-3.968h1.039V43.701z"/>
		</g>
	</g>
	<g>
		<g>
			<defs>
				<rect id="SVGID_39_" x="-16" y="-17.131" width="283.465" height="81.406"/>
			</defs>
			<clipPath id="SVGID_40_">
				<use xlink:href="#SVGID_39_"  overflow="visible"/>
			</clipPath>
			<path clip-path="url(#SVGID_40_)" fill="#5F5E5E" d="M118.791,43.205h1.039v2.588c0,0.52,0.201,0.876,0.713,0.876
				c0.333,0,0.596-0.194,0.813-0.442v-3.021h1.04v3.968h-1.04v-0.488c-0.201,0.24-0.511,0.613-1.224,0.613
				c-1.341,0-1.341-1.001-1.341-1.358V43.205z"/>
		</g>
	</g>
	<g>
		<g>
			<defs>
				<rect id="SVGID_41_" x="-16" y="-17.131" width="283.465" height="81.406"/>
			</defs>
			<clipPath id="SVGID_42_">
				<use xlink:href="#SVGID_41_"  overflow="visible"/>
			</clipPath>
			<path clip-path="url(#SVGID_42_)" fill="#5F5E5E" d="M129.074,47.173h-1.039v-2.572c0-0.132,0-0.272-0.039-0.403
				c-0.061-0.225-0.254-0.464-0.627-0.464c-0.426,0-0.682,0.285-0.86,0.487v2.952h-1.03v-3.968h1.03v0.519
				c0.202-0.231,0.543-0.636,1.295-0.636c0.41,0,0.744,0.148,0.954,0.364c0.293,0.31,0.316,0.706,0.316,1.038L129.074,47.173
				L129.074,47.173z"/>
		</g>
	</g>
	<g>
		<g>
			<defs>
				<rect id="SVGID_43_" x="-16" y="-17.131" width="283.465" height="81.406"/>
			</defs>
			<clipPath id="SVGID_44_">
				<use xlink:href="#SVGID_43_"  overflow="visible"/>
			</clipPath>
			<path clip-path="url(#SVGID_44_)" fill="#5F5E5E" d="M134.468,45.353c-0.202-0.077-0.403-0.147-0.668-0.147
				c-0.457,0-0.86,0.24-0.86,0.744c0,0.34,0.194,0.706,0.713,0.706c0.365,0,0.613-0.156,0.815-0.288V45.353z M135.467,47.173h-0.999
				v-0.45c-0.172,0.181-0.56,0.566-1.295,0.566c-0.806,0-1.317-0.558-1.317-1.271c0-0.913,0.752-1.426,1.674-1.426
				c0.379,0,0.627,0.078,0.938,0.17c-0.009-0.202-0.024-0.41-0.11-0.604c-0.186-0.418-0.627-0.521-0.922-0.521
				c-0.658,0-0.938,0.38-1.093,0.59l-0.263-0.132c0.17-0.38,0.48-1.062,1.658-1.062c0.675,0,1.108,0.223,1.332,0.458
				c0.39,0.394,0.396,0.922,0.396,1.286L135.467,47.173L135.467,47.173z"/>
		</g>
	</g>
	<g>
		<g>
			<defs>
				<rect id="SVGID_45_" x="-16" y="-17.131" width="283.465" height="81.406"/>
			</defs>
			<clipPath id="SVGID_46_">
				<use xlink:href="#SVGID_45_"  overflow="visible"/>
			</clipPath>
			<path clip-path="url(#SVGID_46_)" fill="#5F5E5E" d="M138.534,43.205h1.039v2.588c0,0.52,0.201,0.876,0.713,0.876
				c0.333,0,0.597-0.194,0.814-0.442v-3.021h1.039v3.968H141.1v-0.488c-0.201,0.24-0.512,0.613-1.225,0.613
				c-1.341,0-1.341-1.001-1.341-1.358V43.205z"/>
		</g>
	</g>
	<g>
		<g>
			<defs>
				<rect id="SVGID_47_" x="-16" y="-17.131" width="283.465" height="81.406"/>
			</defs>
			<clipPath id="SVGID_48_">
				<use xlink:href="#SVGID_47_"  overflow="visible"/>
			</clipPath>
			<path clip-path="url(#SVGID_48_)" fill="#5F5E5E" d="M145.414,42.129h1.031v1.076h0.907v0.62h-0.907v2.029
				c0,0.334,0.047,0.496,0.124,0.628c0.187,0.351,0.496,0.351,0.574,0.351c0.161,0,0.272-0.04,0.395-0.078l0.124,0.248
				c-0.232,0.14-0.512,0.318-1.023,0.318c-0.186,0-0.596-0.024-0.898-0.326c-0.287-0.277-0.326-0.628-0.326-0.976v-2.193h-0.627
				v-0.62h0.627v-1.077C145.415,42.129,145.414,42.129,145.414,42.129z"/>
		</g>
	</g>
	<g>
		<g>
			<defs>
				<rect id="SVGID_49_" x="-16" y="-17.131" width="283.465" height="81.406"/>
			</defs>
			<clipPath id="SVGID_50_">
				<use xlink:href="#SVGID_49_"  overflow="visible"/>
			</clipPath>
			<path clip-path="url(#SVGID_50_)" fill="#5F5E5E" d="M152.266,41.469h0.961l-1.457,1.355l-0.265-0.216L152.266,41.469z
				 M152.846,44.685c-0.047-0.357-0.132-1.005-0.906-1.005c-0.744,0-0.9,0.611-1,1.005H152.846z M153.846,46.089
				c-0.171,0.434-0.488,1.248-1.854,1.248c-1.426,0-2.176-0.986-2.176-2.201c0-1.162,0.744-2.109,2.146-2.109
				c0.341,0,0.961,0.054,1.442,0.534c0.55,0.558,0.558,1.297,0.565,1.73h-3.054c0.039,0.294,0.171,1.387,1.395,1.387
				c0.721,0,1.008-0.364,1.279-0.713L153.846,46.089z"/>
		</g>
	</g>
	<g>
		<g>
			<defs>
				<rect id="SVGID_51_" x="-16" y="-17.131" width="283.465" height="81.406"/>
			</defs>
			<clipPath id="SVGID_52_">
				<use xlink:href="#SVGID_51_"  overflow="visible"/>
			</clipPath>
			<path clip-path="url(#SVGID_52_)" fill="#5F5E5E" d="M163.529,44.197c-0.193-0.332-0.448-0.519-0.82-0.519
				c-0.271,0-0.488,0.124-0.628,0.262c-0.38,0.389-0.38,1.017-0.38,1.219c0,0.968,0.388,1.55,1,1.55c0.434,0,0.658-0.248,0.828-0.45
				L163.529,44.197L163.529,44.197z M163.529,41.695h1.039v5.478h-1.039v-0.41c-0.209,0.216-0.549,0.567-1.223,0.567
				c-0.916,0-1.675-0.732-1.675-2.095c0-1.171,0.62-2.2,1.736-2.2c0.666,0,0.968,0.372,1.161,0.596v-1.936
				C163.528,41.695,163.529,41.695,163.529,41.695z"/>
		</g>
	</g>
	<g>
		<g>
			<defs>
				<rect id="SVGID_53_" x="-16" y="-17.131" width="283.465" height="81.406"/>
			</defs>
			<clipPath id="SVGID_54_">
				<use xlink:href="#SVGID_53_"  overflow="visible"/>
			</clipPath>
			<path clip-path="url(#SVGID_54_)" fill="#5F5E5E" d="M167.441,43.809l-0.302-1.898c-0.008-0.069-0.008-0.1-0.008-0.14
				c0-0.27,0.217-0.402,0.372-0.402c0.209,0,0.426,0.133,0.426,0.402c0,0.04,0,0.07-0.007,0.14l-0.304,1.898H167.441z"/>
		</g>
	</g>
	<g>
		<g>
			<defs>
				<rect id="SVGID_55_" x="-16" y="-17.131" width="283.465" height="81.406"/>
			</defs>
			<clipPath id="SVGID_56_">
				<use xlink:href="#SVGID_55_"  overflow="visible"/>
			</clipPath>
			<path clip-path="url(#SVGID_56_)" fill="#5F5E5E" d="M173.262,45.353c-0.201-0.077-0.403-0.147-0.666-0.147
				c-0.459,0-0.861,0.24-0.861,0.744c0,0.34,0.193,0.706,0.713,0.706c0.365,0,0.613-0.156,0.814-0.288V45.353z M174.262,47.173h-1
				v-0.45c-0.17,0.181-0.559,0.566-1.295,0.566c-0.806,0-1.317-0.558-1.317-1.271c0-0.913,0.752-1.426,1.674-1.426
				c0.38,0,0.628,0.078,0.938,0.17c-0.008-0.202-0.023-0.41-0.108-0.604c-0.186-0.418-0.628-0.521-0.923-0.521
				c-0.658,0-0.938,0.38-1.092,0.59l-0.265-0.132c0.171-0.38,0.482-1.062,1.659-1.062c0.674,0,1.107,0.223,1.333,0.458
				c0.388,0.394,0.395,0.922,0.395,1.286v2.396C174.261,47.173,174.262,47.173,174.262,47.173z"/>
		</g>
	</g>
	<g>
		<g>
			<defs>
				<rect id="SVGID_57_" x="-16" y="-17.131" width="283.465" height="81.406"/>
			</defs>
			<clipPath id="SVGID_58_">
				<use xlink:href="#SVGID_57_"  overflow="visible"/>
			</clipPath>
			<path clip-path="url(#SVGID_58_)" fill="#5F5E5E" d="M180.072,44.181c-0.154-0.224-0.363-0.525-0.837-0.525
				c-0.573,0-0.97,0.512-0.97,1.409c0,0.893,0.458,1.326,0.939,1.326c0.449,0,0.727-0.294,0.867-0.45v-1.76H180.072z
				 M177.545,47.413c0.109,0.156,0.18,0.256,0.256,0.342c0.203,0.203,0.535,0.381,0.97,0.381c0.526,0,0.814-0.24,0.931-0.358
				c0.379-0.378,0.379-0.906,0.371-1.387c-0.062,0.078-0.123,0.146-0.193,0.208c-0.248,0.234-0.659,0.42-1.086,0.42
				c-0.782,0-1.627-0.659-1.627-1.954c0-1.231,0.736-2.029,1.713-2.029c0.721,0,1.031,0.396,1.193,0.596v-0.434h1.038v3.401
				c-0.007,0.513-0.015,1.141-0.48,1.608c-0.326,0.323-0.907,0.542-1.551,0.542c-0.611,0-1.125-0.203-1.41-0.488
				c-0.256-0.257-0.326-0.545-0.373-0.73L177.545,47.413z"/>
		</g>
	</g>
	<g>
		<g>
			<defs>
				<rect id="SVGID_59_" x="-16" y="-17.131" width="283.465" height="81.406"/>
			</defs>
			<clipPath id="SVGID_60_">
				<use xlink:href="#SVGID_59_"  overflow="visible"/>
			</clipPath>
			<path clip-path="url(#SVGID_60_)" fill="#5F5E5E" d="M186.9,44.181c-0.155-0.224-0.364-0.525-0.838-0.525
				c-0.573,0-0.969,0.512-0.969,1.409c0,0.893,0.457,1.326,0.938,1.326c0.448,0,0.728-0.294,0.868-0.45L186.9,44.181L186.9,44.181z
				 M184.373,47.413c0.109,0.156,0.18,0.256,0.255,0.342c0.203,0.203,0.536,0.381,0.97,0.381c0.527,0,0.814-0.24,0.931-0.358
				c0.38-0.378,0.38-0.906,0.372-1.387c-0.062,0.078-0.125,0.146-0.194,0.208c-0.248,0.234-0.659,0.42-1.085,0.42
				c-0.783,0-1.627-0.659-1.627-1.954c0-1.231,0.736-2.029,1.712-2.029c0.722,0,1.031,0.396,1.194,0.596v-0.434h1.037v3.401
				c-0.006,0.513-0.015,1.141-0.48,1.608c-0.325,0.323-0.907,0.542-1.55,0.542c-0.612,0-1.125-0.203-1.411-0.488
				c-0.256-0.257-0.326-0.545-0.372-0.73L184.373,47.413z"/>
		</g>
	</g>
</g>
<rect x="191.027" y="41.7" fill="#5F5E5E" width="1.039" height="5.474"/>
<g>
	<g>
		<g>
			<defs>
				<rect id="SVGID_61_" x="-16" y="-17.131" width="283.465" height="81.406"/>
			</defs>
			<clipPath id="SVGID_62_">
				<use xlink:href="#SVGID_61_"  overflow="visible"/>
			</clipPath>
			<path clip-path="url(#SVGID_62_)" fill="#5F5E5E" d="M196.227,45.172c0,0.901,0.311,1.537,0.953,1.537
				c0.651,0,0.961-0.669,0.961-1.479c0-0.884-0.287-1.55-0.961-1.55C196.544,43.68,196.227,44.312,196.227,45.172 M199.234,45.167
				c0,1.108-0.645,2.17-2.102,2.17c-1.209,0-2-0.846-2-2.132c0-1.575,1.133-2.146,2.031-2.163
				C198.218,43.026,199.234,43.726,199.234,45.167"/>
		</g>
	</g>
	<g>
		<g>
			<defs>
				<rect id="SVGID_63_" x="-16" y="-17.131" width="283.465" height="81.406"/>
			</defs>
			<clipPath id="SVGID_64_">
				<use xlink:href="#SVGID_63_"  overflow="visible"/>
			</clipPath>
			<path clip-path="url(#SVGID_64_)" fill="#5F5E5E" d="M203.486,43.701c0.162-0.202,0.496-0.612,1.256-0.612
				c0.217,0,0.473,0.038,0.705,0.178c0.264,0.164,0.341,0.357,0.402,0.521c0.124-0.164,0.226-0.294,0.435-0.435
				c0.31-0.21,0.643-0.264,0.86-0.264c0.41,0,0.714,0.147,0.892,0.326c0.294,0.302,0.302,0.682,0.302,1v2.758h-1.039v-2.758
				c0-0.148-0.007-0.358-0.162-0.521c-0.101-0.107-0.264-0.17-0.427-0.17c-0.224,0-0.441,0.108-0.589,0.264
				c-0.1,0.101-0.155,0.192-0.209,0.294v2.891h-1.038v-2.72c0-0.108-0.008-0.372-0.179-0.551c-0.101-0.107-0.264-0.178-0.435-0.178
				c-0.107,0-0.316,0.023-0.551,0.248c-0.123,0.116-0.169,0.208-0.224,0.31v2.891h-1.039v-3.968h1.039v0.496
				C203.485,43.701,203.486,43.701,203.486,43.701z"/>
		</g>
	</g>
	<g>
		<g>
			<defs>
				<rect id="SVGID_65_" x="-16" y="-17.131" width="283.465" height="81.406"/>
			</defs>
			<clipPath id="SVGID_66_">
				<use xlink:href="#SVGID_65_"  overflow="visible"/>
			</clipPath>
			<path clip-path="url(#SVGID_66_)" fill="#5F5E5E" d="M213.838,41.469h0.961l-1.457,1.355l-0.263-0.216L213.838,41.469z
				 M214.419,44.685c-0.046-0.357-0.131-1.005-0.905-1.005c-0.744,0-0.899,0.611-1,1.005H214.419z M215.419,46.089
				c-0.17,0.434-0.487,1.248-1.852,1.248c-1.426,0-2.179-0.986-2.179-2.201c0-1.162,0.744-2.109,2.147-2.109
				c0.341,0,0.961,0.054,1.441,0.534c0.551,0.558,0.559,1.297,0.566,1.73h-3.053c0.038,0.294,0.17,1.387,1.395,1.387
				c0.721,0,1.008-0.364,1.279-0.713L215.419,46.089z"/>
		</g>
	</g>
	<g>
		<g>
			<defs>
				<rect id="SVGID_67_" x="-16" y="-17.131" width="283.465" height="81.406"/>
			</defs>
			<clipPath id="SVGID_68_">
				<use xlink:href="#SVGID_67_"  overflow="visible"/>
			</clipPath>
			<path clip-path="url(#SVGID_68_)" fill="#5F5E5E" d="M219.602,43.701c0.155-0.202,0.474-0.612,1.179-0.612
				c0.101,0,0.201,0.008,0.295,0.023v0.898c-0.194-0.092-0.396-0.187-0.683-0.187c-0.38,0-0.611,0.156-0.791,0.272v3.076h-1.038
				v-3.968h1.038V43.701z"/>
		</g>
	</g>
	<g>
		<g>
			<defs>
				<rect id="SVGID_69_" x="-16" y="-17.131" width="283.465" height="81.406"/>
			</defs>
			<clipPath id="SVGID_70_">
				<use xlink:href="#SVGID_69_"  overflow="visible"/>
			</clipPath>
			<path clip-path="url(#SVGID_70_)" fill="#5F5E5E" d="M226.088,45.353c-0.202-0.077-0.403-0.147-0.667-0.147
				c-0.457,0-0.86,0.24-0.86,0.744c0,0.34,0.194,0.706,0.714,0.706c0.363,0,0.611-0.156,0.813-0.288V45.353z M227.088,47.173h-1
				v-0.45c-0.171,0.181-0.558,0.566-1.294,0.566c-0.806,0-1.318-0.558-1.318-1.271c0-0.913,0.752-1.426,1.675-1.426
				c0.38,0,0.628,0.078,0.938,0.17c-0.008-0.202-0.022-0.41-0.109-0.604c-0.185-0.418-0.627-0.521-0.922-0.521
				c-0.658,0-0.938,0.38-1.093,0.59l-0.263-0.132c0.17-0.38,0.48-1.062,1.658-1.062c0.675,0,1.108,0.223,1.333,0.458
				c0.389,0.394,0.395,0.922,0.395,1.286L227.088,47.173L227.088,47.173z"/>
		</g>
	</g>
	<g>
		<g>
			<defs>
				<rect id="SVGID_71_" x="-16" y="-17.131" width="283.465" height="81.406"/>
			</defs>
			<clipPath id="SVGID_72_">
				<use xlink:href="#SVGID_71_"  overflow="visible"/>
			</clipPath>
			<path clip-path="url(#SVGID_72_)" fill="#5F5E5E" d="M230.505,42.129h1.03v1.076h0.906v0.62h-0.906v2.029
				c0,0.334,0.046,0.496,0.124,0.628c0.186,0.351,0.496,0.351,0.573,0.351c0.163,0,0.271-0.04,0.396-0.078l0.124,0.248
				c-0.233,0.14-0.512,0.318-1.024,0.318c-0.185,0-0.596-0.024-0.899-0.326c-0.286-0.277-0.324-0.628-0.324-0.976v-2.193h-0.628
				v-0.62h0.628L230.505,42.129L230.505,42.129z"/>
		</g>
	</g>
	<g>
		<g>
			<defs>
				<rect id="SVGID_73_" x="-16" y="-17.131" width="283.465" height="81.406"/>
			</defs>
			<clipPath id="SVGID_74_">
				<use xlink:href="#SVGID_73_"  overflow="visible"/>
			</clipPath>
			<path clip-path="url(#SVGID_74_)" fill="#5F5E5E" d="M235.377,43.205h1.031v3.968h-1.031V43.205z M235.308,42.112
				c0-0.31,0.264-0.573,0.582-0.573c0.31,0,0.572,0.264,0.572,0.573c0,0.318-0.256,0.58-0.572,0.58c-0.155,0-0.304-0.061-0.411-0.17
				C235.369,42.415,235.308,42.267,235.308,42.112"/>
		</g>
	</g>
	<g>
		<g>
			<defs>
				<rect id="SVGID_75_" x="-16" y="-17.131" width="283.465" height="81.406"/>
			</defs>
			<clipPath id="SVGID_76_">
				<use xlink:href="#SVGID_75_"  overflow="visible"/>
			</clipPath>
			<path clip-path="url(#SVGID_76_)" fill="#5F5E5E" d="M240.576,45.172c0,0.901,0.31,1.537,0.954,1.537
				c0.65,0,0.961-0.669,0.961-1.479c0-0.884-0.286-1.55-0.961-1.55C240.895,43.68,240.576,44.312,240.576,45.172 M243.584,45.167
				c0,1.108-0.643,2.17-2.1,2.17c-1.209,0-2-0.846-2-2.132c0-1.575,1.132-2.146,2.03-2.163
				C242.569,43.026,243.584,43.726,243.584,45.167"/>
		</g>
	</g>
	<g>
		<g>
			<defs>
				<rect id="SVGID_77_" x="-16" y="-17.131" width="283.465" height="81.406"/>
			</defs>
			<clipPath id="SVGID_78_">
				<use xlink:href="#SVGID_77_"  overflow="visible"/>
			</clipPath>
			<path clip-path="url(#SVGID_78_)" fill="#5F5E5E" d="M250.239,47.173H249.2v-2.572c0-0.132,0-0.272-0.039-0.403
				c-0.062-0.225-0.255-0.464-0.627-0.464c-0.427,0-0.682,0.285-0.86,0.487v2.952h-1.03v-3.968h1.03v0.519
				c0.201-0.231,0.543-0.636,1.295-0.636c0.41,0,0.744,0.148,0.954,0.364c0.293,0.31,0.316,0.706,0.316,1.038L250.239,47.173
				L250.239,47.173z"/>
		</g>
	</g>
</g>
</svg>
