<?xml version="1.0" encoding="utf-8"?>
<!-- Generator: Adobe Illustrator 17.1.0, SVG Export Plug-In . SVG Version: 6.00 Build 0)  -->
<!DOCTYPE svg PUBLIC "-//W3C//DTD SVG 1.1//EN" "http://www.w3.org/Graphics/SVG/1.1/DTD/svg11.dtd">
<svg version="1.1" id="Calque_1" xmlns="http://www.w3.org/2000/svg" xmlns:xlink="http://www.w3.org/1999/xlink" x="0px" y="0px"
	 viewBox="0 0 621 80" enable-background="new 0 0 621 80" xml:space="preserve">
<g>
	<path fill="#FFFFFF" stroke="#FFFFFF" d="M267.5,72.1l3.6-5.2c3.9,2.5,7.5,3.9,10.7,3.9c3,0,5.2-0.5,7.1-1.6c1.6-1,2.5-2.3,2.5-3.9
		c0-3-2.2-4.6-6.4-4.6c-0.7,0-2,0.2-4.1,0.5c-1.8,0.3-3.4,0.5-4.6,0.5c-5.2,0-8-2-8-5.9c0-1.2,0.7-2.3,1.8-3.4
		c1.2-1,2.7-1.6,4.6-2.2c-5.2-2.3-7.8-6.8-7.8-12.6c0-3.9,1.4-7.1,4.1-9.6c2.7-2.5,6.1-3.9,10-3.9c3.7,0,6.4,0.7,8.6,2.2l3.2-3.9
		l4.2,4.1l-3.9,3c1.6,2.2,2.5,5,2.5,8.6c0,3.7-1.2,6.9-3.6,9.4c-2.3,2.5-5.4,4.1-9.1,4.4l-5.4,0.5c-0.7,0-1.6,0.3-2.5,0.7
		c-1,0.5-1.6,1-1.6,1.6c0,1,1.2,1.4,3.4,1.4c1,0,2.5-0.2,4.6-0.5c2-0.3,3.7-0.5,4.8-0.5c3.7,0,6.4,0.9,8.4,2.5c2,1.6,3,4.2,3,7.3
		c0,3.4-1.6,6.2-4.6,8.2c-3,2-6.9,3.2-11.6,3.2c-2.3,0-4.9-0.5-7.6-1.4C271.2,74.6,269,73.4,267.5,72.1z M281.3,29.6
		c-2.3,0-4.2,0.9-5.5,2.3c-1.6,1.6-2.2,3.6-2.2,5.9c0,2.5,0.7,4.8,2,6.4c1.4,1.6,3.2,2.5,5.5,2.5s4.2-0.9,5.4-2.5
		c1.4-1.6,2-3.9,2-6.4c0-2.3-0.7-4.2-2.2-5.9C285.2,30.5,283.5,29.6,281.3,29.6z"/>
	<path fill="#FFFFFF" stroke="#FFFFFF" d="M327.2,31.4c-1.4-1-2.9-1.6-4.4-1.6c-2.3,0-4.2,1-6,3.2c-1.6,2.2-2.4,4.8-2.4,7.8v21.7h-7
		v-37h7V31c2-4.4,5.8-6.6,10.5-6.6c1.2,0,2.8,0.2,5,0.7L327.2,31.4z"/>
	<path fill="#FFFFFF" stroke="#FFFFFF" d="M354.1,57.9c-2.7,3.4-6.6,4.9-11.9,4.9c-2.9,0-5.4-1-7.6-3.2c-2.2-2-3.2-4.8-3.2-8
		c0-3.7,1.6-6.9,4.9-9.4c3.2-2.5,7.5-3.9,12.5-3.9c1.4,0,2.9,0.3,4.8,0.9c0-5.9-2.7-8.9-8-8.9c-4.1,0-7.3,1.2-9.4,3.4l-2.7-5.5
		c1.2-1,3-1.8,5.2-2.5c2.2-0.7,4.2-1,6.2-1c5.4,0,9.5,1.2,11.8,3.7c2.3,2.3,3.8,6.2,3.8,11.6v13.3c0,3.2,1,5.4,3,6.4v3.2
		c-3,0-5-0.3-6.3-1.2C355.7,60.9,354.7,59.5,354.1,57.9z M353.5,44.5c-2-1-3.6-0.9-4.4-0.9c-3.4,0-6.1,0.7-8.1,2.4
		c-2,1.6-3.2,3.6-3.2,6.1c0,3.9,2.3,5.7,6.8,5.7c3.4,0,5.8-1.6,8.8-4.8L353.5,44.5L353.5,44.5z"/>
	<path fill="#FFFFFF" stroke="#FFFFFF" d="M382.2,62.5h-1.6l-15.8-38h7.3l9.8,26l10-26h6.9L382.2,62.5z"/>
	<path fill="#FFFFFF" stroke="#FFFFFF" d="M433.3,44.5h-26.7c0,4,1.2,7.4,3.6,9.8c2,2,4.8,2.9,8.1,2.9c3.7,0,6.9-1,9.4-3.2l2.7,4.7
		c-1,1-2.5,1.8-4.8,2.7c-2.7,1-5.5,1.5-8.7,1.5c-4.8,0-8.6-1.6-11.8-4.8c-3.6-3.6-5.4-8.1-5.4-14c0-6.1,1.8-11,5.5-14.7
		c3.4-3.4,7.3-4.9,11.8-4.9c5.2,0,9.4,1.6,12.3,4.4c2.9,2.9,4.4,6.8,4.4,11.5C433.8,41.8,433.7,43.5,433.3,44.5z M417.5,30
		c-2.9,0-5.4,0.9-7.5,2.8c-1.8,1.8-3,4.7-3.2,6.7h20.4c0-2-0.9-4.7-2.5-6.5C423.1,30.7,420.5,30,417.5,30z M426,6.5l-7.8,11h-4.8
		l5.9-11H426z"/>
</g>
<g>
	<g>
		<path fill="#E83181" stroke="#E83181" d="M455.8,38.1c-0.5,0.5-1.2,0.7-2.1,0.7c-0.9,0-1.7-0.2-2.2-0.7c-0.5-0.5-1-1-1-1.6V26.1
			c0-0.3,0.2-0.7,0.3-0.9c0.2-0.3,0.4-0.5,0.8-0.9c0.2-0.2,0.5-0.3,0.9-0.5c0.3-0.2,0.7-0.2,1.2-0.2c0.3,0,0.7,0,1,0.2
			c0.3,0.2,0.7,0.3,0.9,0.5c0.2,0.2,0.5,0.5,0.7,0.9c0.2,0.3,0.2,0.7,0.2,0.9v1.4h-1v-1.4c0-0.5,0-1-0.5-1.4s-0.9-0.5-1.4-0.5
			c-0.7,0-1.1,0.2-1.5,0.5c-0.5,0.3-0.6,0.9-0.6,1.4v10.3c0,0.5,0.2,1,0.7,1.4c0.5,0.3,1,0.5,1.5,0.5c0.7,0,0.9-0.2,1.3-0.5
			c0.5-0.3,0.5-0.9,0.5-1.4v-1.9h1v1.9C456.5,37.1,456.4,37.6,455.8,38.1z"/>
		<path fill="#E83181" stroke="#E83181" d="M464.5,38.5v-15l0,0v1.2c1-0.3,0.7-0.5,1.2-0.7c0.3-0.2,1-0.3,1.3-0.3s0.7,0,1,0.2
			c0.3,0.2,0.7,0.3,0.9,0.5c0.2,0.2,0.5,0.6,0.7,1c0.2,0.3,0.2,0.1,0.2,1.1h-0.5c0-1,0-0.6-0.2-1c-0.2-0.2-0.3-0.5-0.5-0.7
			c-0.2-0.2-0.5-0.3-0.7-0.5c-0.3-0.2-0.5-0.2-0.9-0.2c-0.7,0-1.3,0.2-1.7,0.5c-0.5,0.3-0.8,0.9-0.8,1.4V38.5L464.5,38.5L464.5,38.5
			L464.5,38.5z"/>
		<path fill="#E83181" stroke="#E83181" d="M481.7,38.1c-0.5,0.5-1.3,0.7-2.1,0.7c-0.9,0-1.7-0.2-2.1-0.7c-0.5-0.5-1-1-1-1.6V26.1
			c0-0.3,0.1-0.7,0.3-0.9c0.2-0.3,0.3-0.5,0.7-0.9c0.2-0.2,0.5-0.3,0.9-0.5c0.3-0.2,0.7-0.2,1.2-0.2c0.3,0,0.7,0,1,0.2
			c0.3,0.2,0.7,0.3,0.9,0.5s0.6,0.5,0.8,0.9c0.2,0.3,0.3,0.7,0.3,0.9v4.4h-5v5.7c0,0.5,0,1,0.5,1.4c0.5,0.3,0.9,0.5,1.5,0.5
			c0.7,0,1-0.2,1.4-0.5c0.5-0.3,0.6-0.9,0.6-1.4v-1.7h1v1.7C482.5,37.1,482.3,37.6,481.7,38.1z M477.4,30.5h4.1v-4.4
			c0-0.5,0-1-0.5-1.4c-0.5-0.3-0.9-0.5-1.4-0.5c-0.7,0-1.1,0.2-1.5,0.5c-0.5,0.3-0.6,0.9-0.6,1.4v4.4H477.4z M478.9,22.5h-0.7l2-2
			h0.7L478.9,22.5z"/>
		<path fill="#E83181" stroke="#E83181" d="M495.5,38.5v-0.7c-1,0.3-0.8,0.5-1.1,0.7c-0.3,0.2-0.9,0.2-1.2,0.2
			c-0.9,0-1.4-0.2-1.9-0.7s-0.8-1-0.8-1.6v-4.2c0-0.3-0.1-0.7,0-0.9c0.2-0.3,0.2-0.5,0.6-0.9c0.2-0.2,0.4-0.3,0.8-0.5
			c0.3-0.2,0.7-0.2,1.1-0.2c0.5,0,1,0.2,1.3,0.3c0.3,0.2,0.1,0.3,1.1,0.7v-4.6c0-0.5-0.3-1-0.8-1.4c-0.5-0.3-1-0.5-1.6-0.5
			c-0.7,0-1.3,0.2-1.7,0.5c-0.5,0.3-0.9,0.9-0.9,1.4v1.4l0,0v-1.4c0-0.3-0.1-0.7,0.1-0.9c0.2-0.3,0.2-0.5,0.6-0.9
			c0.2-0.2,0.5-0.3,0.8-0.5c0.3-0.2,0.7-0.2,1.2-0.2c0.3,0,0.7,0,1,0.2s0.7,0.3,0.9,0.5c0.2,0.2,0.3,0.5,0.5,0.9
			c0.2,0.3,0,0.7,0,0.9V38.5L495.5,38.5z M491.3,37.8c0.5,0.3,1,0.5,1.6,0.5c0.7,0,1.4-0.2,1.8-0.5c0.5-0.3,0.9-0.9,0.9-1.4v-4.2
			c0-0.5-0.4-1-0.9-1.4c-0.5-0.3-1.1-0.5-1.6-0.5c-0.7,0-1.3,0.2-1.7,0.5c-0.5,0.3-0.8,0.9-0.8,1.4v4.2
			C490.5,36.9,491,37.4,491.3,37.8z"/>
		<path fill="#E83181" stroke="#E83181" d="M507.5,38.8c0,0-0.8,0-1.1-0.2c-0.3-0.2-0.7-0.3-0.9-0.5c-0.3-0.2-0.5-0.5-0.7-0.9
			c-0.2-0.3-0.3-0.7-0.3-1V24.5h-2v-1h2v-4l0,0v4h3v1h-3v11.7c0,0.5,0.5,1,1,1.4c0.5,0.3,1,0.5,2,0.5V38.8L507.5,38.8z"/>
		<path fill="#E83181" stroke="#E83181" d="M519,38.1c-0.5,0.5-1.1,0.7-2,0.7s-1.4-0.2-1.8-0.7s-0.7-1-0.7-1.6V26.1
			c0-0.3-0.2-0.7,0-0.9c0.2-0.3,0.2-0.5,0.6-0.9c0.2-0.2,0.4-0.3,0.8-0.5c0.3-0.2,0.7-0.2,1.1-0.2c0.3,0,0.7,0,1,0.2
			c0.3,0.2,0.7,0.3,0.9,0.5s0.3,0.5,0.5,0.9c0.2,0.3,0,0.7,0,0.9v4.4h-5v5.7c0,0.5,0.3,1,0.8,1.4c0.5,0.3,1,0.5,1.6,0.5
			c0.7,0,1.3-0.2,1.7-0.5c0.5-0.3,0.9-0.9,0.9-1.4v-1.7l0,0v1.7C519.5,37.1,519.5,37.6,519,38.1z M514.8,30.5h4.7v-4.4
			c0-0.5-0.2-1-0.7-1.4s-1-0.5-1.6-0.5c-0.7,0-1.4,0.2-1.8,0.5c-0.5,0.3-0.9,0.9-0.9,1.4v4.4H514.8z"/>
		<path fill="#E83181" stroke="#E83181" d="M532.2,38.1c-0.5,0.5-1.1,0.7-1.9,0.7s-1.5-0.2-2-0.7s-0.8-1-0.8-1.6V23.5l0,0v12.9
			c0,0.5,0.4,1,0.9,1.4c0.5,0.3,1.1,0.5,1.7,0.5c0.7,0,1.3-0.2,1.7-0.5c0.5-0.3,0.8-0.9,0.8-1.4V23.5l0,0v12.9
			C533.5,37.1,532.7,37.6,532.2,38.1z"/>
		<path fill="#E83181" stroke="#E83181" d="M541.5,38.5v-15l0,0v1.2c0-0.3,0.5-0.5,1-0.7c0.3-0.2,0.9-0.3,1.2-0.3c0.3,0,0.7,0,1,0.2
			c0.3,0.2,0.7,0.3,0.9,0.5c0.2,0.2,0.5,0.6,0.7,1c0.2,0.3,0.2,0.1,0.2,1.1h-0.5c0-1,0-0.6-0.2-1c-0.2-0.2-0.3-0.5-0.5-0.7
			s-0.5-0.3-0.7-0.5c-0.3-0.2-0.5-0.2-0.9-0.2c-0.7,0-1.1,0.2-1.5,0.5c-0.5,0.3-0.6,0.9-0.6,1.4V38.5h-1l0,0H541.5z"/>
	</g>
</g>
<g>
	<path fill="#E83181" stroke="#E83181" d="M455.5,63.5v-1.1c0,0.3-0.5,0.5-0.7,0.7c-0.3,0.2-0.8,0.2-1.1,0.2c-0.9,0-1.7-0.2-2.2-0.7
		c-0.5-0.5-1-1-1-1.6V50.7c0-0.3,0.2-0.7,0.4-0.9c0.2-0.3,0.4-0.5,0.8-0.9c0.2-0.2,0.5-0.3,0.9-0.5c0.3-0.2,0.7-0.2,1.2-0.2
		c0.5,0,0.7,0.2,1,0.3c0.3,0.2,0.8,0.3,0.8,0.7v-5.7h1v20H455.5z M452.1,62.2c0.5,0.3,0.9,0.5,1.5,0.5c0.7,0,1-0.2,1.4-0.5
		c0.5-0.3,0.5-0.9,0.5-1.4V50.6c0-0.5,0-1-0.5-1.4c-0.5-0.4-0.9-0.5-1.5-0.5c-0.7,0-1.1,0.2-1.5,0.5c-0.5,0.3-0.6,0.9-0.6,1.4v10.5
		C451.5,61.6,451.8,61.9,452.1,62.2z"/>
	<path fill="#E83181" stroke="#E83181" d="M464.5,46.5v-4l0,0V46.5L464.5,46.5L464.5,46.5z"/>
	<path fill="#E83181" stroke="#E83181" d="M477.2,62.7c-0.5,0.5-1,0.7-1.9,0.7c-0.9,0-1.5-0.2-2-0.7c-0.5-0.5-0.8-1-0.8-1.6V50.8
		c0-0.3,0-0.7,0.2-0.9c0.2-0.3,0.3-0.5,0.7-0.9c0.2-0.2,0.5-0.3,0.9-0.5c0.3-0.2,0.7-0.2,1.2-0.2c0.3,0,0.7,0,1,0.2
		c0.3,0.2,0.7,0.3,0.9,0.5c0.2,0.2,0.7,0.5,0.9,0.9c0.2,0.4,0.4,0.7,0.4,0.9v4.7h-5v5.6c0,0.5,0,1,0.4,1.4c0.5,0.3,0.9,0.5,1.4,0.5
		c0.7,0,1.1-0.2,1.5-0.5c0.5-0.3,0.6-0.9,0.6-1.4v-1.6l0,0v1.6C478.5,61.8,477.6,62.2,477.2,62.7z M473.2,54.5h4.3v-3.9
		c0-0.5-0.1-1-0.5-1.4c-0.5-0.3-0.9-0.5-1.5-0.5c-0.7,0-1,0.2-1.4,0.5c-0.5,0.3-0.6,0.9-0.6,1.4v3.9H473.2z M474.7,47.5H474l2-2h0.7
		L474.7,47.5z"/>
	<path fill="#E83181" stroke="#E83181" d="M487.9,63.5l-2.5-15h0.5l2.2,13.1c0.3-2.2,0.9-4.3,1.2-6.6c0.3-2.2,0.7-4.6,1.2-6.6h0.5
		l-2.5,15H487.9z"/>
	<path fill="#E83181" stroke="#E83181" d="M502.8,62.7c-0.5,0.5-1.2,0.7-2.1,0.7c-0.9,0-1.7-0.2-2.2-0.7c-0.5-0.5-1-1-1-1.6V50.8
		c0-0.3,0.1-0.7,0.3-0.9c0.2-0.3,0.4-0.5,0.7-0.9c0.2-0.2,0.5-0.3,0.9-0.5c0.3-0.2,0.7-0.2,1.2-0.2c0.3,0,0.7,0,1,0.2
		c0.3,0.2,0.7,0.3,0.9,0.5c0.2,0.2,0.5,0.5,0.7,0.9c0.2,0.3,0.2,0.7,0.2,0.9v4.7h-5v5.6c0,0.5,0.1,1,0.6,1.4
		c0.5,0.3,0.9,0.5,1.5,0.5c0.7,0,1-0.2,1.4-0.5c0.5-0.3,0.5-0.9,0.5-1.4v-1.6h1v1.6C503.5,61.8,503.3,62.2,502.8,62.7z M498.4,54.5
		h5.1v-3.9c0-0.5-0.4-1-0.9-1.4c-0.5-0.4-1.1-0.5-1.7-0.5c-0.7,0-1.2,0.2-1.6,0.5c-0.5,0.3-0.8,0.9-0.8,1.4L498.4,54.5L498.4,54.5z
		 M500,47.5h-0.7l2-2h0.7L500,47.5z"/>
	<path fill="#E83181" stroke="#E83181" d="M511.5,63.4V48.5l0,0v0.7c1-0.3,0.7-0.5,1.1-0.7c0.3-0.2,1-0.3,1.2-0.3s0.7,0,1,0.2
		c0.3,0.2,0.7,0.3,0.9,0.5c0.2,0.2,0.4,0.5,0.6,0.9c0.2,0.3,0.1,0.7,0.1,0.9v12.8l0,0V50.7c0-0.5-0.2-1-0.7-1.4
		c-0.5-0.4-1-0.5-1.6-0.5c-0.7,0-1.4,0.2-1.8,0.5c-0.5,0.3-0.9,0.9-0.9,1.4V63.4L511.5,63.4L511.5,63.4z"/>
	<path fill="#E83181" stroke="#E83181" d="M529.7,62.7c-0.5,0.5-1.3,0.7-2.1,0.7s-1.6-0.2-2.1-0.7s-1-1-1-1.6V50.8
		c0-0.3,0-0.7,0.2-0.9c0.2-0.3,0.3-0.5,0.7-0.9c0.2-0.2,0.5-0.3,0.9-0.5c0.3-0.2,0.7-0.2,1.2-0.2c0.3,0,0.7,0,1,0.2
		c0.3,0.2,0.7,0.3,0.9,0.5c0.2,0.2,0.6,0.5,0.8,0.9c0.2,0.3,0.4,0.7,0.4,0.9v4.7h-5v5.6c0,0.5,0,1,0.5,1.4c0.5,0.3,0.9,0.5,1.5,0.5
		c0.7,0,1.1-0.2,1.5-0.5c0.5-0.3,0.6-0.9,0.6-1.4v-1.6h1v1.6C530.5,61.8,530.3,62.2,529.7,62.7z M525.3,54.5h4.2v-3.9
		c0-0.5,0-1-0.5-1.4c-0.5-0.4-0.9-0.5-1.5-0.5c-0.7,0-1.1,0.2-1.5,0.5c-0.5,0.3-0.6,0.9-0.6,1.4v3.9H525.3z"/>
	<path fill="#E83181" stroke="#E83181" d="M538.5,63.5v-15l0,0v0.7c0-0.3,0.5-0.5,1-0.7c0.3-0.2,0.9-0.3,1.2-0.3
		c0.5,0,1,0.2,1.6,0.3c0.5,0.3,0.9,0.5,1,1c0.2-0.3,0.5-0.7,1-1c0.5-0.3,1-0.3,1.6-0.3c0.3,0,0.7,0,1,0.2c0.3,0.2,0.7,0.3,0.9,0.5
		c0.3,0.2,0.5,0.5,0.7,0.9c0.2,0.3,0.2,0.7,0.2,0.9v12.8l0,0V50.7c0-0.3-0.2-0.5-0.4-0.7c-0.2-0.2-0.4-0.5-0.6-0.7
		c-0.2-0.2-0.5-0.3-0.7-0.3c-0.3-0.2-0.5-0.2-0.9-0.2c-0.7,0-1.2,0.2-1.7,0.5s-0.7,0.9-0.7,1.4v12.8h-1V50.7c0-0.5,0-1-0.4-1.4
		s-0.8-0.5-1.4-0.5c-0.3,0-0.4,0-0.8,0.2c-0.3,0.2-0.5,0.2-0.6,0.3c-0.2,0.2-0.3,0.3-0.5,0.7c-0.2,0.2-0.2,0.5-0.2,0.7V63.5
		L538.5,63.5L538.5,63.5L538.5,63.5z"/>
	<path fill="#E83181" stroke="#E83181" d="M561.7,62.7c-0.5,0.5-1.3,0.7-2.2,0.7c-0.9,0-1.6-0.2-2.1-0.7c-0.5-0.5-0.9-1-0.9-1.6
		V50.8c0-0.3,0-0.7,0.2-0.9c0.2-0.3,0.3-0.5,0.7-0.9c0.2-0.2,0.5-0.3,0.9-0.5c0.3-0.2,0.7-0.2,1.2-0.2c0.3,0,0.7,0,1,0.2
		c0.3,0.2,0.7,0.3,0.9,0.5c0.2,0.2,0.7,0.5,0.9,0.9c0.2,0.3,0.4,0.7,0.4,0.9v4.7h-5v5.6c0,0.5,0,1,0.5,1.4c0.5,0.3,0.9,0.5,1.4,0.5
		c0.7,0,1.1-0.2,1.5-0.5c0.5-0.3,0.6-0.9,0.6-1.4v-1.6h1v1.6C562.5,61.8,562.3,62.2,561.7,62.7z M557.3,54.5h4.2v-3.9
		c0-0.5,0-1-0.5-1.4c-0.5-0.3-0.9-0.5-1.5-0.5c-0.7,0-1,0.2-1.4,0.5c-0.5,0.3-0.6,0.9-0.6,1.4v3.9H557.3z"/>
	<path fill="#E83181" stroke="#E83181" d="M570.5,63.5v-15l0,0v0.7c1-0.3,0.6-0.5,1.1-0.7c0.3-0.2,0.9-0.3,1.2-0.3s0.7,0,1,0.2
		c0.3,0.2,0.7,0.3,0.9,0.5c0.2,0.2,0.4,0.5,0.6,0.9c0.2,0.3,0.2,0.7,0.2,0.9v12.8l0,0V50.7c0-0.5-0.4-1-0.9-1.4
		c-0.5-0.3-1.1-0.5-1.7-0.5c-0.7,0-1.3,0.2-1.7,0.5c-0.5,0.3-0.8,0.9-0.8,1.4V63.5L570.5,63.5L570.5,63.5L570.5,63.5z"/>
	<path fill="#E83181" stroke="#E83181" d="M587,63.4c-0.3,0-0.7,0-1-0.2c-0.3-0.2-0.7-0.3-0.9-0.5c-0.3-0.2-0.4-0.5-0.6-0.9
		c-0.2-0.3-0.1-0.7-0.1-1V48.5h-2l0,0h2v-4l0,0v4h3l0,0h-3v12.6c0,0.5,0.3,1,0.8,1.4c0.5,0.3,1,0.5,1.7,0.5L587,63.4L587,63.4z"/>
	<path fill="#E83181" stroke="#E83181" d="M594.1,59.5h0.4v1.6c0,0.5,0.2,1,0.7,1.4c0.5,0.3,1,0.5,1.6,0.5c0.7,0,1.4-0.2,1.8-0.5
		c0.5-0.3,0.9-0.9,0.9-1.4v-3c0-0.3-0.2-0.5-0.4-0.9c-0.2-0.3-0.4-0.5-0.8-0.7c-0.2-0.2-0.3-0.4-0.5-0.5c-0.2,0-0.5,0.5-0.7-0.5l0,0
		l0,0l0,0c0,0,0,0-0.2,0h-0.1l0,0c-0.3,0-0.7-0.1-0.9-0.1c-0.2-0.2-0.5-0.1-0.7-0.2c-0.3-0.2-0.3-0.4-0.5-0.8
		c-0.2-0.3-0.2-0.6-0.2-0.9v-2.7c0-0.3-0.1-0.7,0.1-0.9c0.2-0.3,0.2-0.5,0.6-0.9c0.2-0.2,0.5-0.3,0.8-0.5c0.3-0.2,0.7-0.2,1.1-0.2
		c0.3,0,0.7,0,1,0.2c0.3,0.2,0.7,0.3,0.9,0.5c0.2,0.2,0.3,0.5,0.5,0.9c0.2,0.3,0,0.7,0,0.9v1.7l0,0v-1.7c0-0.5-0.4-1-0.8-1.4
		c-0.5-0.3-1.1-0.5-1.6-0.5c-0.7,0-1.3,0.2-1.7,0.5c-0.5,0.3-0.8,0.9-0.8,1.4v2.5c0,0.7,0.4,1.2,1,1.6c0.2,0.2,0.3,0.2,0.7,0.3
		c0.2,0.2,0.5,0.3,0.7,0.3h0.2c0.2,0,0.2,0,0.2,0s0,0,0.2,0s0.5,0.2,0.7,0.3c0.2,0,0.3,0.2,0.7,0.3c0.4,0.1,0.9,0.5,1.1,0.9
		c0.2,0.3,0.5,0.7,0.5,1v3c0,0.3-0.2,0.7-0.4,0.9c-0.2,0.3-0.4,0.5-0.8,0.7c-0.2,0.2-0.5,0.3-0.9,0.5c-0.3,0.2-0.7,0.2-1,0.2
		c-0.9,0-1.5-0.2-2-0.7c-0.5-0.5-0.8-1-0.8-1.6v-1.3H594.1z"/>
</g>
<rect x="616" fill="#E83181" width="5" height="80"/>
<rect fill="#623D91" width="5" height="80"/>
<g>
	<path fill="#BFBFBF" d="M26,63.7V30h-6v-6h13v40h-7V63.7z M29.4,8.9c1.2,0,2.2,0.5,3,1.4c0.9,0.9,1.4,1.8,1.4,3
		c0,1.2-0.5,2.2-1.4,3c-0.9,0.9-1.8,1.4-3,1.4c-1.2,0-2.2-0.5-3-1.4c-1-0.9-1.4-1.8-1.4-3c0-1.2,0.3-2.2,1.2-3
		C27,9.4,28,8.9,29.4,8.9z"/>
	<path fill="#BFBFBF" d="M74,64V40.6c0-4.2-0.6-7.3-1.7-8.9c-1.4-1.6-3.3-2.5-6.3-2.5c-1.6,0-3.1,0.5-4.9,1.6c-1.6,1-3,2.2-4,3.6V64
		h-7V24h4.6l2.2,5.1c2.3-3.9,6-5.9,11.2-5.9C76.8,23.1,81,28.4,81,39v25H74L74,64L74,64z"/>
	<path fill="#BFBFBF" d="M87,61.4l2.5-6.8c3.9,2.5,7.1,3.9,9.4,3.9c4.4,0,6.6-1.8,6.6-5.5c0-2.7-2-4.9-6.2-6.8
		c-3.2-1.6-5.4-2.5-6.6-3.4c-1.2-0.9-2-1.6-2.9-2.5c-0.9-1-1.6-2-1.8-3c-0.3-1.2-0.7-2.3-0.7-3.6c0-3.2,1.2-5.7,3.6-7.6
		c2.3-1.8,5.4-2.7,9.3-2.7c2.9,0,6.6,0.9,11,2.7l-2,6.6c-2.9-2.2-5.5-3.4-8.4-3.4c-1.6,0-3,0.3-4.2,1.2c-1.2,0.9-1.6,1.8-1.6,3
		c0,2.5,1.6,4.6,4.4,5.7l5,2.3c3,1.4,5.4,3,6.8,4.9c1.4,1.8,2.2,4.1,2.2,6.8c0,3.6-1.2,6.4-3.7,8.4c-2.5,2-5.9,3-10.5,3
		C94.7,64.4,90.8,63.4,87,61.4z"/>
	<path fill="#BFBFBF" d="M121.5,29H117v-5h4v-8.3l8-2.7v11h11v5h-11v20.1c0,3.4,0.3,5.7,1.4,7.1c1.2,1.4,2.8,2.2,5.3,2.2
		c1.8,0,3.6-0.5,5.5-1.4l0.9,6.2c-2.9,0.7-6.1,1.2-9.6,1.2c-3.2,0-5.9-1.2-8.2-3.6c-2.2-2.3-3.4-5.2-3.4-8.7V29H121.5z"/>
	<path fill="#BFBFBF" d="M169.9,59.2c-2.7,3.6-7.1,5.2-12.8,5.2c-3,0-5.7-1.2-8.1-3.4c-2.3-2.2-3.4-5-3.4-8.4
		c0-4.1,1.6-7.5,5.2-10.3c3.6-2.7,8-4.2,13.5-4.2c1.6,0,3.2,0.3,5,1c0-6.4-2.9-9.6-8.6-9.6c-4.4,0-7.8,1.2-10.1,3.6l-3-5.9
		c1.4-1,3.2-2,5.5-2.9c2.3-0.9,4.6-1.2,6.8-1.2c5.7,0,9.8,1.4,12.3,3.9c2.5,2.7,3.7,6.8,3.7,12.5v14.2c0,3.6,1,5.7,3,6.9v3.9
		c-3,0-4.8-0.3-6.2-1.2C171.4,62.4,170.6,61.1,169.9,59.2z M169.2,44.1c-2.2-0.5-3.7-0.6-4.8-0.6c-3.6,0-6.4,0.9-8.7,2.7
		c-2.2,1.8-3.4,4.1-3.4,6.4c0,4.1,2.3,6.2,7.3,6.2c3.6,0,6.4-1.6,9.4-5V44L169.2,44.1L169.2,44.1z"/>
	<path fill="#BFBFBF" d="M210,64V40.6c0-4.2-0.5-7.3-1.7-8.9c-1.4-1.6-3.3-2.5-6.3-2.5c-1.6,0-3.1,0.5-5,1.6c-1.6,1-3,2.2-4,3.6V64
		h-7V24h4.7l2.2,5.1c2.3-3.9,6-5.9,11.2-5.9c8.7,0,12.9,5.2,12.9,15.8v25H210L210,64L210,64z"/>
	<path fill="#BFBFBF" d="M228.3,29H224v-5h4v-8.3l7-2.7v11h11v5h-11v20.1c0,3.4,0.7,5.7,1.8,7.1c1.2,1.4,3,2.2,5.5,2.2
		c1.8,0,3.7-0.5,5.6-1.4l1,6.2c-2.9,0.7-6.1,1.2-9.6,1.2c-3.2,0-5.7-1.2-8-3.6c-2.2-2.3-3.2-5.5-3.2-9L228.3,29L228.3,29z"/>
</g>
</svg>
