<?xml version="1.0" encoding="utf-8"?>
<!-- Generator: Adobe Illustrator 17.1.0, SVG Export Plug-In . SVG Version: 6.00 Build 0)  -->
<!DOCTYPE svg PUBLIC "-//W3C//DTD SVG 1.1//EN" "http://www.w3.org/Graphics/SVG/1.1/DTD/svg11.dtd">
<svg version="1.1" id="Calque_1" xmlns="http://www.w3.org/2000/svg" xmlns:xlink="http://www.w3.org/1999/xlink" x="0px" y="0px"
	 viewBox="50 54 412 404.1" enable-background="new 50 54 412 404.1" xml:space="preserve">
<g id="google-plus-icon">
	<path fill="#FFFFFF" d="M462,141.3h-54.6V196h-27.3v-54.6h-54.6V114h54.6V59.4h27.3V114H462V141.3z M307.6,367.3
		c0,40.9-37.4,90.8-131.4,90.8C107.4,458,50,428.4,50,378.5C50,340,74.4,290,188.3,290c-16.9-13.8-21.1-33.1-10.7-54
		c-66.7,0-100.9-39.2-100.9-89c0-48.7,36.2-93,110.1-93c18.7,0,118.4,0,118.4,0l-26.5,27.8h-31.1c21.9,12.6,33.6,38.4,33.6,66.9
		c0,26.2-14.4,47.4-35,63.3c-36.5,28.2-27.2,44,11.1,71.9C295.1,312.1,307.6,333.9,307.6,367.3z M233.7,150.5
		c-5.5-41.9-32.8-76.3-64.7-77.2c-31.9-0.9-53.3,31.1-47.8,73c5.5,41.9,35.8,71.2,67.7,72.1C220.9,219.3,239.2,192.4,233.7,150.5z
		 M266.6,371.5c0-34.5-31.4-67.3-84.2-67.3c-47.5-0.5-87.8,30-87.8,65.5c0,36.2,34.3,66.2,81.9,66.2
		C237.3,435.9,266.6,407.6,266.6,371.5z"/>
</g>
</svg>
