<?xml version="1.0" encoding="utf-8"?>
<!-- Generator: Adobe Illustrator 17.1.0, SVG Export Plug-In . SVG Version: 6.00 Build 0)  -->
<!DOCTYPE svg PUBLIC "-//W3C//DTD SVG 1.1//EN" "http://www.w3.org/Graphics/SVG/1.1/DTD/svg11.dtd">
<svg version="1.1" id="Layer_1" xmlns="http://www.w3.org/2000/svg" xmlns:xlink="http://www.w3.org/1999/xlink" x="0px" y="0px"
	 viewBox="0 0 100 54" enable-background="new 0 0 100 54" xml:space="preserve">
<path fill="none" d="M33.2,22.1c-0.5,1.7-0.8,3.4-0.8,5.2c0,10.1,8.2,18.3,18.3,18.3c10.1,0,18.3-8.2,18.3-18.3
	C69,17.2,60.8,9,50.7,9c-4.3,0-8.3,1.5-11.5,4.1"/>
<path fill="none" d="M42.5,17.3c2.3-1.9,5.3-3.1,8.5-3.1c7.3,0,13.2,5.9,13.2,13.2c0,7.3-5.9,13.2-13.2,13.2
	c-7.3,0-13.2-5.9-13.2-13.2c0-1.3,0.2-2.6,0.5-3.7"/>
<path fill="#FF5742" d="M51,40.5c7.3,0,13.2-5.9,13.2-13.2c0-7.3-5.9-13.2-13.2-13.2c-3.2,0-6.2,1.2-8.5,3.1L50,27l-11.7-3.4
	c-0.3,1.2-0.5,2.4-0.5,3.7C37.8,34.6,43.7,40.5,51,40.5z"/>
<path fill="#FF5742" d="M98.3,25.7C86.3,9.4,68.5,0,49.3,0C31.1,0,13.7,8.7,1.7,23.8L0,26l1.6,2.2c12,16.3,29.9,25.7,49,25.7
	c18.3,0,35.6-8.7,47.6-23.8l1.7-2.2L98.3,25.7z M50.7,45.7c-10.1,0-18.3-8.2-18.3-18.3c0-1.8,0.3-3.6,0.8-5.2L29,20.9
	c-0.6,2-0.9,4.2-0.9,6.5c0,6.8,3.1,13,7.9,17.1c-10.2-3.1-19.4-9.4-26.6-18.3C16.6,17.7,26,11.8,36.2,9l0.4,0.6l2.7,3.5
	C42.4,10.5,46.4,9,50.7,9C60.8,9,69,17.2,69,27.3C69,37.4,60.8,45.7,50.7,45.7z M65.6,44.4c4.8-4.2,7.8-10.3,7.8-17
	c0-7-3.2-13.3-8.3-17.5c9.8,3.2,18.7,9.3,25.6,18C83.8,35.8,75.1,41.4,65.6,44.4z"/>
</svg>
