<?xml version="1.0" encoding="utf-8"?>
<!-- Generator: Adobe Illustrator 17.1.0, SVG Export Plug-In . SVG Version: 6.00 Build 0)  -->
<!DOCTYPE svg PUBLIC "-//W3C//DTD SVG 1.1//EN" "http://www.w3.org/Graphics/SVG/1.1/DTD/svg11.dtd">
<svg version="1.1" id="Layer_1" xmlns="http://www.w3.org/2000/svg" xmlns:xlink="http://www.w3.org/1999/xlink" x="0px" y="0px"
	 viewBox="0 0 1024 768" enable-background="new 0 0 1024 768" xml:space="preserve">
<g>
	<g>
		<g>
			<path fill="#FF5742" d="M21.8,29.2H875c12,0,21.8,9.7,21.8,21.8v269.9H658.3c-19.2,0-34.8,15.6-34.8,34.8v265.6h-92.1l37.9,98.4
				c0,8.2-6.6,14.8-14.8,14.8H342.2c-8.1,0-14.8-6.6-14.8-14.8l37.9-98.4H21.8c-12,0-21.8-9.8-21.8-21.8V51
				C0,38.9,9.7,29.2,21.8,29.2z"/>
		</g>
		<g>
			<path fill="#FF5742" d="M889,717c0,12,9.7,21.8,21.8,21.8h91.4c12,0,21.8-9.8,21.8-21.8V516.8c0-12-9.7-21.8-21.8-21.8h-91.4
				c-12,0-21.8,9.8-21.8,21.8V717z"/>
			<g>
				<path fill="#FF5742" d="M872.4,729c-1.2-3.9-1.8-7.9-1.8-12V516.8c0-22.2,18.1-40.3,40.3-40.3h38.1V355.7
					c0-9-7.3-16.3-16.3-16.3H658.3c-9,0-16.3,7.3-16.3,16.3v357c0,9,7.3,16.3,16.3,16.3H872.4z"/>
			</g>
		</g>
	</g>
</g>
</svg>
