<?xml version="1.0" encoding="utf-8"?>
<!-- Generator: Adobe Illustrator 17.1.0, SVG Export Plug-In . SVG Version: 6.00 Build 0)  -->
<!DOCTYPE svg PUBLIC "-//W3C//DTD SVG 1.1//EN" "http://www.w3.org/Graphics/SVG/1.1/DTD/svg11.dtd">
<svg version="1.1" id="Layer_1" xmlns="http://www.w3.org/2000/svg" xmlns:xlink="http://www.w3.org/1999/xlink" x="0px" y="0px"
	 viewBox="9 5.5 49 53" enable-background="new 9 5.5 49 53" xml:space="preserve">
<g>
	<rect x="15" y="47.5" fill="#FF5742" width="14" height="4"/>
	<path fill="#FF5742" d="M48,30.5v-25H9v53h29v-14h20v-14C58,30.5,48,30.5,48,30.5z M55,41.5H29.1c0.3-1.3,1.5-2.3,2.9-2.3v-1.1
		c-0.2,0-0.3-0.1-0.5-0.1c-1.9,0-3.5,1.6-3.5,3.5v2h7v12H12v-12h10v-2c0-1.9-1.6-3.5-3.5-3.5c-0.2,0-0.3,0-0.5,0.1v1.1
		c1.4,0,2.6,1,2.9,2.3H12v-19h7.6v-2H12v-12h17v12h-3c0-1.9-1.6-3.5-3.5-3.5c-0.2,0-0.3,0-0.5,0.1v1.1c1.4,0,2.7,1,3,2.4h0v2h4v11h2
		v-25h14v25h10L55,41.5L55,41.5z"/>
</g>
</svg>
