<?xml version="1.0" encoding="utf-8"?>
<!-- Generator: Adobe Illustrator 17.1.0, SVG Export Plug-In . SVG Version: 6.00 Build 0)  -->
<!DOCTYPE svg PUBLIC "-//W3C//DTD SVG 1.1//EN" "http://www.w3.org/Graphics/SVG/1.1/DTD/svg11.dtd">
<svg version="1.1" id="Calque_1" xmlns="http://www.w3.org/2000/svg" xmlns:xlink="http://www.w3.org/1999/xlink" x="0px" y="0px"
	 viewBox="0 0 1024 768" enable-background="new 0 0 1024 768" xml:space="preserve">
<g id="Your_Icon">
</g>
<g>
	<path fill="#FF5742" d="M945.3,119.8H741.9v-3c0-46.6-37.8-84.4-84.4-84.4H366.4c-46.5,0-84.3,37.8-84.3,84.4v3h-50.5v-30H93.8v30
		H78.6c-43.9,0-79.7,38.8-79.7,86.6v442.4c0,47.9,35.8,86.7,79.7,86.7h866.8c44,0,79.8-38.7,79.8-86.7V206.4
		C1025.1,158.6,989.4,119.8,945.3,119.8z M123,269.1c-16.1,0-29.2-13-29.2-29.2c0-16.1,13-29.2,29.2-29.2
		c16.1,0,29.2,13.1,29.2,29.2C152.2,256,139.1,269.1,123,269.1z M512,697.5c-148.8,0-269.9-121.1-269.9-269.9S363.2,157.8,512,157.8
		c148.8,0,269.8,121,269.8,269.9S660.8,697.5,512,697.5z M944.3,231.3H842.7c-6,0-10.9-7.5-10.9-16.7s4.9-16.8,10.9-16.8h101.6
		c6,0,10.8,7.5,10.8,16.8C955.1,223.8,950.2,231.3,944.3,231.3z"/>
	<path fill="#FF5742" d="M512,211.1c-119.4,0-216.6,97.1-216.6,216.5c0,119.4,97.2,216.6,216.6,216.6
		c119.4,0,216.6-97.2,216.6-216.6C728.6,308.3,631.3,211.1,512,211.1z M440.9,294.4c-55,9.2-66.3,76-66.8,78.9
		c-1.1,6.5-6.7,11.2-13.1,11.2c-0.7,0-1.4,0-2.1-0.2c-7.3-1.2-12.2-7.9-11.1-15.2c0.6-3.6,14.6-88.7,88.7-101
		c7.3-1.2,14.1,3.7,15.3,10.9C453,286.3,448.1,293.2,440.9,294.4z"/>
</g>
</svg>
