<?xml version="1.0" encoding="utf-8"?>
<!-- Generator: Adobe Illustrator 17.1.0, SVG Export Plug-In . SVG Version: 6.00 Build 0)  -->
<!DOCTYPE svg PUBLIC "-//W3C//DTD SVG 1.1//EN" "http://www.w3.org/Graphics/SVG/1.1/DTD/svg11.dtd">
<svg version="1.1" id="Capa_4" xmlns="http://www.w3.org/2000/svg" xmlns:xlink="http://www.w3.org/1999/xlink" x="0px" y="0px"
	 viewBox="0 0 1024 768" enable-background="new 0 0 1024 768" xml:space="preserve">
<path fill="#FF5742" d="M735.5,544.5c-10.8,4.6-15.4,16.1-11.5,26.9c4.6,10.8,16.1,15.4,26.9,11.5c10.8-4.6,15.4-16.1,11.5-26.9
	C757.8,545.3,746.2,539.9,735.5,544.5z M237.8,473.1c10.8,3.1,22.3-3.1,26.1-13.8c3.1-10.8-3.1-22.3-13.8-26.1
	c-10.8-3.1-22.3,3.1-26.1,13.8C220.9,458.5,227.1,470,237.8,473.1z M427.5,169.7c11.5,0,20.7-9.2,20.7-20.7
	c0-11.5-9.2-20.7-20.7-20.7s-20.7,9.2-20.7,20.7C406.8,160.5,416,169.7,427.5,169.7z M822.3,692.7c0,0-10-43.8-11.5-46.8l-23-39.2
	h16.9l25.3,27.6l8.4-6.9l-25.3-39.2h-43.8c-3.8-0.8-7.7,0-10.8,2.3c-3.8,2.3-6.1,5.4-7.7,8.4l-17.7,24.6l-37.6,3.8v10.8l46.1,3.1
	l14.6-19.2l22.3,38.4l-14.6,39.9l-18.4,59.9L635.6,583.7l6.9-0.8l-6.9-62.2l-1.5-37.6c4.6-3.8,6.9-10,6.1-16.1l-8.4-55.3
	c0-1.5-1.5-4.6-1.5-4.6c-3.1-6.9-10.8-10.8-18.4-10c-1.5,0-2.3,0.8-3.8,0.8c0,0-3.8,1.5-4.6,3.1l-27.6,16.9L539.6,407l-3.8,10
	l42.2,20l20.7-13.1l2.3,13.1l-33,13.8l3.8,10.8l32.3-8.4l2.3,17.7l-30,13.1l-8.4,29.2l-89.9-159.7l24.6-159.7l16.1-23l-8.4-6.1
	l-3.8,4.6l4.6-28.4c13.1-4.6,57.6-16.1,100.6,17.7C664.1,198.9,724,169,724,169l20-134.4c0,0-59.9,30-112.1-10.8
	C579.6-16.9,527.4,8.4,527.4,8.4l-4.6-1.5l-26.9,173.6l-18.4,20.7l-33.8-20.7c-3.8-3.1-8.4-5.4-13.8-4.6c-3.1,0-6.9,0.8-9.2,2.3
	l-48.4,32.3l26.9,36.9l8.4-5.4L396,215l12.3-8.4l0.8,46.8c0,2.3-3.1,47.6-3.1,47.6l-2.3,63l19.2,0.8L350.7,480l-16.9-30.7L296.2,513
	h-36.1l-21.5-23.8c0-2.3-3.8-5.4-3.8-5.4c-0.8-0.8-1.5-1.5-3.1-1.5c-6.9-3.1-15.4-1.5-20,4.6c0,0-1.5,1.5-3.1,4.6l-23,50.7
	c-3.8,8.4,0,19.2,8.4,23l2.3,37.6v63h9.2L146.4,768h603.6l-3.8-6.9l20,6.1l17.7-59.9l11.5-30l7.7,30.7l65.3,29.2l9.2-20L822.3,692.7
	z M218.6,644.4v-43l-2.3-29.2l18.4,4.6l10,23L218.6,644.4z M258.6,577.5l-7.7-17.7l-30.7-8.4l4.6-10.8l29.2,16.9l6.1-9.2l-27.6-23
	l5.4-12.3l16.1,17.7l36.1-6.1L258.6,577.5z M482,224.3l10-14.6l-20,131.3l-2.3-62.2c0,0-16.1-23.8-16.1-26.9l-0.8-46.1L482,224.3z
	 M466.7,500.7c10.8-3.1,22.3,3.1,26.1,13.8c3.1,10.8-3.1,22.3-13.8,26.1c-10.8,3.1-22.3-3.1-26.1-13.8
	C449.8,516.1,455.9,503.8,466.7,500.7z M428.3,301.8l3.1-27.6c0,0,0,0,0.8,0c0,0,0,0,0.8,0S449,288,449,288l1.5,35.3l-23,36.9
	L428.3,301.8z M522.8,632.8l-2.3,38.4v62.2h-22.3v-63l2.3-29.2l-18.4,3.8l-23.8,56.1l-20-8.4l28.4-66l30.7-8.4l-5.4-10.8l-29.2,16.9
	l-6.1-9.2l28.4-23l-5.4-12.3l-16.9,18.4l-46.1-6.9l0.8-11.5l37.6,0.8l22.3-24.6c0.8-0.8,3.1-3.8,3.1-3.8c0.8-0.8,2.3-1.5,3.8-2.3
	c6.9-3.1,15.4-1.5,20.7,4.6c0,0,2.3,3.1,3.1,4.6l23,50.7C535,618.2,531.2,628.2,522.8,632.8z M598.8,524.5l-9.2,26.1l-6.1-11.5
	l11.5-39.9l17.7-6.9l1.5,30l3.8,31.5L598.8,524.5z M588,366.3c0,11.5,9.2,20.7,20.7,20.7s20.7-9.2,20.7-20.7s-9.2-20.7-20.7-20.7
	S588,354.8,588,366.3z"/>
</svg>
