<?xml version="1.0" encoding="utf-8"?>
<!-- Generator: Adobe Illustrator 17.1.0, SVG Export Plug-In . SVG Version: 6.00 Build 0)  -->
<!DOCTYPE svg PUBLIC "-//W3C//DTD SVG 1.1//EN" "http://www.w3.org/Graphics/SVG/1.1/DTD/svg11.dtd">
<svg version="1.1" id="Calque_1" xmlns="http://www.w3.org/2000/svg" xmlns:xlink="http://www.w3.org/1999/xlink" x="0px" y="0px"
	 viewBox="3.5 2.3 92.1 96.1" enable-background="new 3.5 2.3 92.1 96.1" xml:space="preserve">
<path fill="#FF5742" d="M49.7,24.8c-12.8,0-23.3,10.4-23.3,23.3c0,11,10.7,22.3,11,23c0.3,0.7,1,1.1,1.7,1.1h22.5
	c0.8,0,1.5-0.5,1.8-1.2c0.3-0.6,9.5-13.2,9.5-22.9C72.9,35.2,62.5,24.8,49.7,24.8z"/>
<path fill="#FF5742" d="M60.7,75.4H39.8c-1.1,0-1.9,0.9-1.9,1.9c0,1.1,0.9,1.9,1.9,1.9h20.9c1.1,0,1.9-0.9,1.9-1.9
	C62.7,76.3,61.8,75.4,60.7,75.4z"/>
<path fill="#FF5742" d="M58.8,82.5H41.7c-1.1,0-1.9,0.9-1.9,1.9c0,1.1,0.9,1.9,1.9,1.9h17.1c1.1,0,1.9-0.9,1.9-1.9
	C60.7,83.4,59.9,82.5,58.8,82.5z"/>
<path fill="#FF5742" d="M54.4,90.2h-8.8c-1.1,0-1.9,0.9-1.9,1.9c0,3.5,2.8,6.3,6.3,6.3s6.3-2.8,6.3-6.3C56.3,91,55.5,90.2,54.4,90.2
	z"/>
<path fill="#FF5742" d="M16.6,46.5H5.4c-1.1,0-1.9,0.9-1.9,1.9c0,1.1,0.9,1.9,1.9,1.9h11.1c1.1,0,1.9-0.9,1.9-1.9
	C18.5,47.4,17.6,46.5,16.6,46.5z"/>
<path fill="#FF5742" d="M27.5,23.7l-7.9-7.9c-0.8-0.8-2-0.8-2.7,0c-0.8,0.8-0.8,2,0,2.7l7.9,7.9c0.7,0.8,2,0.8,2.7,0
	C28.3,25.7,28.3,24.5,27.5,23.7z"/>
<path fill="#FF5742" d="M49.5,17.2c1.1,0,1.9-0.9,1.9-1.9V4.2c0-1.1-0.9-1.9-1.9-1.9c-1.1,0-1.9,0.9-1.9,1.9v11.1
	C47.5,16.4,48.4,17.2,49.5,17.2z"/>
<path fill="#FF5742" d="M82.1,15.7c-0.7-0.8-2-0.8-2.7,0l-7.9,7.9c-0.7,0.7-0.7,2,0,2.7c0.8,0.8,2,0.8,2.7,0l7.9-7.9
	C82.8,17.6,82.8,16.4,82.1,15.7z"/>
<path fill="#FF5742" d="M93.7,46.3H82.6c-1.1,0-1.9,0.9-1.9,1.9s0.9,1.9,1.9,1.9h11.1c1.1,0,1.9-0.9,1.9-1.9
	C95.7,47.1,94.8,46.3,93.7,46.3z"/>
<g id="Your_Icon">
</g>
</svg>
