<?xml version="1.0" encoding="utf-8"?>
<!-- Generator: Adobe Illustrator 17.1.0, SVG Export Plug-In . SVG Version: 6.00 Build 0)  -->
<!DOCTYPE svg PUBLIC "-//W3C//DTD SVG 1.1//EN" "http://www.w3.org/Graphics/SVG/1.1/DTD/svg11.dtd">
<svg version="1.1" id="Capa_4" xmlns="http://www.w3.org/2000/svg" xmlns:xlink="http://www.w3.org/1999/xlink" x="0px" y="0px"
	 viewBox="0 0 95.2 100" enable-background="new 0 0 95.2 100" xml:space="preserve">
<path fill="#FF5742" d="M76.7,70.9c-1.4,0.6-2,2.1-1.5,3.5c0.6,1.4,2.1,2,3.5,1.5c1.4-0.6,2-2.1,1.5-3.5
	C79.6,71,78.1,70.3,76.7,70.9z M11.9,61.6c1.4,0.4,2.9-0.4,3.4-1.8c0.4-1.4-0.4-2.9-1.8-3.4c-1.4-0.4-2.9,0.4-3.4,1.8
	C9.7,59.7,10.5,61.2,11.9,61.6z M36.6,22.1c1.5,0,2.7-1.2,2.7-2.7c0-1.5-1.2-2.7-2.7-2.7c-1.5,0-2.7,1.2-2.7,2.7
	C33.9,20.9,35.1,22.1,36.6,22.1z M88,90.2c0,0-1.3-5.7-1.5-6.1l-3-5.1l2.2,0l3.3,3.6l1.1-0.9l-3.3-5.1l-5.7,0c-0.5-0.1-1,0-1.4,0.3
	c-0.5,0.3-0.8,0.7-1,1.1l-2.3,3.2l-4.9,0.5l0,1.4l6,0.4l1.9-2.5l2.9,5l-1.9,5.2L78,99L63.7,76l0.9-0.1l-0.9-8.1l-0.2-4.9
	c0.6-0.5,0.9-1.3,0.8-2.1l-1.1-7.2c0-0.2-0.2-0.6-0.2-0.6c-0.4-0.9-1.4-1.4-2.4-1.3c-0.2,0-0.3,0.1-0.5,0.1c0,0-0.5,0.2-0.6,0.4
	l-3.6,2.2l-4.7-1.4l-0.5,1.3l5.5,2.6l2.7-1.7l0.3,1.7l-4.3,1.8l0.5,1.4l4.2-1.1l0.3,2.3L56,63l-1.1,3.8L43.2,46l3.2-20.8l2.1-3
	l-1.1-0.8l-0.5,0.6l0.6-3.7c1.7-0.6,7.5-2.1,13.1,2.3c6.8,5.3,14.6,1.4,14.6,1.4l2.6-17.5c0,0-7.8,3.9-14.6-1.4
	c-6.8-5.3-13.6-2-13.6-2L49,0.9l-3.5,22.6l-2.4,2.7l-4.4-2.7c-0.5-0.4-1.1-0.7-1.8-0.6c-0.4,0-0.9,0.1-1.2,0.3l-6.3,4.2l3.5,4.8
	l1.1-0.7l-1.5-3.5l1.6-1.1l0.1,6.1c0,0.3-0.4,6.2-0.4,6.2l-0.3,8.2l2.5,0.1l-9.4,15l-2.2-4l-4.9,8.3l-4.7,0l-2.8-3.1
	C12,63.4,11.5,63,11.5,63c-0.1-0.1-0.2-0.2-0.4-0.2c-0.9-0.4-2-0.2-2.6,0.6c0,0-0.2,0.2-0.4,0.6l-3,6.6c-0.5,1.1,0,2.5,1.1,3
	l0.3,4.9l0,8.2l1.2,0L0,100h78.6l-0.5-0.9l2.6,0.8l2.3-7.8l1.5-3.9l1,4L94,96l1.2-2.6L88,90.2z M9.4,83.9l0-5.6l-0.3-3.8l2.4,0.6
	l1.3,3L9.4,83.9z M14.6,75.2l-1-2.3l-4-1.1l0.6-1.4l3.8,2.2l0.8-1.2l-3.6-3l0.7-1.6l2.1,2.3l4.7-0.8L14.6,75.2z M43.7,29.2l1.3-1.9
	l-2.6,17.1l-0.3-8.1c0,0-2.1-3.1-2.1-3.5l-0.1-6L43.7,29.2z M41.7,65.2c1.4-0.4,2.9,0.4,3.4,1.8c0.4,1.4-0.4,2.9-1.8,3.4
	c-1.4,0.4-2.9-0.4-3.4-1.8C39.5,67.2,40.3,65.6,41.7,65.2z M36.7,39.3l0.4-3.6c0,0,0,0,0.1,0c0,0,0,0,0.1,0c0.1,0,2.1,1.8,2.1,1.8
	l0.2,4.6l-3,4.8L36.7,39.3z M49,82.4l-0.3,5l0,8.1l-2.9,0l0-8.2l0.3-3.8L43.7,84l-3.1,7.3l-2.6-1.1l3.7-8.6l4-1.1l-0.7-1.4l-3.8,2.2
	l-0.8-1.2l3.7-3l-0.7-1.6l-2.2,2.4l-6-0.9l0.1-1.5l4.9,0.1l2.9-3.2c0.1-0.1,0.4-0.5,0.4-0.5c0.1-0.1,0.3-0.2,0.5-0.3
	c0.9-0.4,2-0.2,2.7,0.6c0,0,0.3,0.4,0.4,0.6l3,6.6C50.6,80.5,50.1,81.8,49,82.4z M58.9,68.3l-1.2,3.4l-0.8-1.5l1.5-5.2l2.3-0.9
	l0.2,3.9l0.5,4.1L58.9,68.3z M57.5,47.7c0,1.5,1.2,2.7,2.7,2.7c1.5,0,2.7-1.2,2.7-2.7c0-1.5-1.2-2.7-2.7-2.7
	C58.7,45,57.5,46.2,57.5,47.7z"/>
</svg>
