<?xml version="1.0" encoding="utf-8"?>
<!-- Generator: Adobe Illustrator 17.1.0, SVG Export Plug-In . SVG Version: 6.00 Build 0)  -->
<!DOCTYPE svg PUBLIC "-//W3C//DTD SVG 1.1//EN" "http://www.w3.org/Graphics/SVG/1.1/DTD/svg11.dtd">
<svg version="1.1" id="Layer_1" xmlns="http://www.w3.org/2000/svg" xmlns:xlink="http://www.w3.org/1999/xlink" x="0px" y="0px"
	 viewBox="17.5 15.4 66 70.3" enable-background="new 17.5 15.4 66 70.3" xml:space="preserve">
<path fill="#FF5742" d="M77.8,61.8c0-9.5,0-46.4,0-46.4h-2.6H23.1l-5.6,3.3v66.9h57.7v-6h8.3C83.5,79.7,77.8,75.1,77.8,61.8z
	 M74,51.8h-9.9V41.2H74V51.8z M49.8,29v10.6h-11V29C38.8,29,49.8,29,49.8,29z M51.4,29h11v10.6h-11V29z M26.9,29h10.2v10.6H26.9V29z
	 M26.9,41.2h10.2v10.6H26.9V41.2z M26.9,53.4h10.2v8.4c0,0.8,0,1.5,0,2.2H26.9V53.4z M38.8,61.8v-8.4h11v8.4c0,0.8,0,1.5,0,2.2h-11
	C38.8,63.3,38.8,62.6,38.8,61.8z M38.8,51.8V41.2h11v10.6H38.8z M51.4,41.2h11v10.6h-11V41.2z M74,39.6h-9.9V29H74V39.6z M37.3,65.6
	c0.4,5.4,1.8,8.5,3.1,10.3H29.7c-0.3-0.2-0.7-0.7-1.1-1.7c-0.7-1.4-1.5-4-1.6-8.6H37.3z M42.5,75.9c-1.3-1.2-3.1-3.9-3.6-10.3h11
	c0.4,5.4,1.8,8.5,3.1,10.3H42.5z M55.2,75.9c-1.3-1.2-3.1-3.9-3.6-10.3h11c0.4,5.4,1.8,8.5,3.1,10.3H55.2z M51.5,64
	c0-0.7,0-1.4,0-2.2v-8.4h11v8.4c0,0.8,0,1.5,0,2.2H51.5z M64.1,61.8v-8.4H74v8.4v1.6c0,0.2,0,0.4,0,0.5h-9.8
	C64.1,63.3,64.1,62.6,64.1,61.8z M71.4,81.8H21.3v-61l1.8-1.1c0,10.2,0,35.4,0,44.2c0,14.6,5.7,15.7,5.7,15.7h42.5L71.4,81.8
	L71.4,81.8z M75.2,75.9h-3.8h-3.6c-1.3-1.2-3.1-3.9-3.6-10.3H74c0.2,4,0.8,7.4,2,10.3H75.2z"/>
</svg>
