<?xml version="1.0" encoding="utf-8"?>
<!-- Generator: Adobe Illustrator 17.1.0, SVG Export Plug-In . SVG Version: 6.00 Build 0)  -->
<!DOCTYPE svg PUBLIC "-//W3C//DTD SVG 1.1//EN" "http://www.w3.org/Graphics/SVG/1.1/DTD/svg11.dtd">
<svg version="1.1" id="Layer_1" xmlns="http://www.w3.org/2000/svg" xmlns:xlink="http://www.w3.org/1999/xlink" x="0px" y="0px"
	 viewBox="10 15.8 80 68.3" enable-background="new 10 15.8 80 68.3" xml:space="preserve">
<g>
	<g>
		<path fill="#FF5742" d="M58.1,32.6H41.9c-2.6,0-4.7,2.1-4.7,4.7v22c0,2.6,2.1,4.7,4.7,4.7h0v15.6c0,2.6,2,4.7,4.6,4.7h7
			c2.5,0,4.6-2.1,4.6-4.7V63.9h0c2.6,0,4.7-2.1,4.7-4.7v-22C62.7,34.7,60.7,32.6,58.1,32.6z"/>
		<circle fill="#FF5742" cx="50" cy="23.5" r="7.6"/>
	</g>
	<g>
		<path fill="#FF5742" d="M86,34.4H72.2c-2.2,0-4,1.8-4,4v18.8c0,2.2,1.8,4,4,4h0v13.3c0,2.2,1.7,4,3.9,4h6c2.2,0,3.9-1.8,3.9-4
			V61.3h0c2.2,0,4-1.8,4-4V38.5C90,36.2,88.2,34.4,86,34.4z"/>
		<path fill="#FF5742" d="M79.1,20.1c3.6,0,6.5,2.9,6.5,6.5c0,3.6-2.9,6.5-6.5,6.5c-3.6,0-6.5-2.9-6.5-6.5
			C72.5,23,75.5,20.1,79.1,20.1z"/>
	</g>
	<g>
		<path fill="#FF5742" d="M27.8,34.4H14c-2.2,0-4,1.8-4,4v18.8c0,2.2,1.8,4,4,4h0v13.3c0,2.2,1.7,4,3.9,4h6c2.2,0,3.9-1.8,3.9-4
			V61.3h0c2.2,0,4-1.8,4-4V38.5C31.8,36.2,30,34.4,27.8,34.4z"/>
		<circle fill="#FF5742" cx="20.9" cy="26.6" r="6.5"/>
	</g>
</g>
</svg>
