<?xml version="1.0" encoding="utf-8"?>
<!-- Generator: Adobe Illustrator 17.1.0, SVG Export Plug-In . SVG Version: 6.00 Build 0)  -->
<!DOCTYPE svg PUBLIC "-//W3C//DTD SVG 1.1//EN" "http://www.w3.org/Graphics/SVG/1.1/DTD/svg11.dtd">
<svg version="1.1" id="Calque_1" xmlns="http://www.w3.org/2000/svg" xmlns:xlink="http://www.w3.org/1999/xlink" x="0px" y="0px"
	 viewBox="0 0 621 80" enable-background="new 0 0 621 80" xml:space="preserve">
<rect x="126.1" y="8.1" display="none" width="136.4" height="92.6"/>
<g>
	<path fill="#FFFFFF" stroke="#FFFFFF" d="M267.5,72l3.6-5.2c3.9,2.5,7.5,3.9,10.7,3.9c3,0,5.2-0.5,7.1-1.6c1.6-1,2.5-2.3,2.5-3.9
		c0-3-2.2-4.6-6.4-4.6c-0.7,0-2,0.2-4.1,0.5c-1.8,0.3-3.4,0.5-4.6,0.5c-5.2,0-8-2-8-5.9c0-1.2,0.7-2.3,1.8-3.4
		c1.2-1,2.7-1.6,4.6-2.2c-5.2-2.3-7.8-6.8-7.8-12.6c0-3.9,1.4-7.1,4.1-9.6c2.7-2.5,6.1-3.9,10-3.9c3.7,0,6.4,0.7,8.6,2.2l3.2-3.9
		l4.2,4.1l-3.9,3c1.6,2.2,2.5,5,2.5,8.6c0,3.7-1.2,6.9-3.6,9.4c-2.3,2.5-5.4,4.1-9.1,4.4l-5.4,0.5c-0.7,0-1.6,0.3-2.5,0.7
		c-1,0.5-1.6,1-1.6,1.6c0,1,1.2,1.4,3.4,1.4c1,0,2.5-0.2,4.6-0.5c2-0.3,3.7-0.5,4.8-0.5c3.7,0,6.4,0.9,8.4,2.5s3,4.2,3,7.3
		c0,3.4-1.6,6.2-4.6,8.2c-3,2-6.9,3.2-11.6,3.2c-2.3,0-4.9-0.5-7.6-1.4C271.2,74.4,269,73.2,267.5,72z M281.3,29.5
		c-2.3,0-4.2,0.9-5.5,2.3c-1.6,1.6-2.2,3.6-2.2,5.9c0,2.5,0.7,4.8,2,6.4c1.4,1.6,3.2,2.5,5.5,2.5c2.3,0,4.2-0.9,5.4-2.5
		c1.4-1.6,2-3.9,2-6.4c0-2.3-0.7-4.2-2.2-5.9C285.2,30.4,283.5,29.5,281.3,29.5z"/>
	<path fill="#FFFFFF" stroke="#FFFFFF" d="M327.2,31.2c-1.4-1-2.9-1.6-4.4-1.6c-2.3,0-4.4,1-6.1,3.2c-1.6,2.2-2.5,4.8-2.5,7.8v21.2
		h-6.6v-37h6.6v5.9c2.3-4.4,5.9-6.6,10.7-6.6c1.2,0,2.9,0.2,5,0.7L327.2,31.2z"/>
	<path fill="#FFFFFF" stroke="#FFFFFF" d="M354.1,57.7c-2.7,3.4-6.6,4.9-11.9,4.9c-2.9,0-5.4-1-7.6-3.2c-2.2-2-3.2-4.8-3.2-8
		c0-3.7,1.6-6.9,4.9-9.4c3.2-2.5,7.5-3.9,12.5-3.9c1.4,0,2.9,0.3,4.8,0.9c0-5.9-2.7-8.9-8-8.9c-4.1,0-7.3,1.2-9.4,3.4l-2.7-5.5
		c1.2-1,3-1.8,5.2-2.5c2.2-0.7,4.2-1,6.2-1c5.4,0,9.3,1.2,11.6,3.7c2.3,2.3,3.7,6.2,3.7,11.6v13.3c0,3.2,1,5.4,2.9,6.4v3.2
		c-2.7,0-4.8-0.3-6.1-1.2C355.5,60.7,354.7,59.4,354.1,57.7z M353.5,43.8c-2-0.5-3.6-0.7-4.4-0.7c-3.4,0-6.1,0.9-8.1,2.5
		c-2,1.6-3.2,3.7-3.2,6.1c0,3.9,2.2,5.7,6.8,5.7c3.4,0,6.2-1.6,8.7-4.8L353.5,43.8L353.5,43.8z"/>
	<path fill="#FFFFFF" stroke="#FFFFFF" d="M382.2,62.6h-1.6l-15.8-37.8h7.3l9.8,26l10-26h6.9L382.2,62.6z"/>
	<path fill="#FFFFFF" stroke="#FFFFFF" d="M433.3,44h-26.7c0,4.4,1.2,7.6,3.6,10c2,2,4.8,3,8.1,3c3.7,0,6.9-1,9.4-3.2l2.7,4.8
		c-1,1-2.5,1.8-4.8,2.7c-2.7,1-5.5,1.6-8.7,1.6c-4.8,0-8.6-1.6-11.8-4.8c-3.6-3.6-5.4-8.1-5.4-14c0-6.1,1.8-11,5.5-14.7
		c3.4-3.4,7.3-4.9,11.8-4.9c5.2,0,9.4,1.6,12.3,4.4c2.9,2.9,4.4,6.6,4.4,11.4C433.8,41.5,433.7,42.9,433.3,44z M417.5,29.9
		c-2.9,0-5.4,1-7.5,2.9c-1.8,1.8-3,4.1-3.2,6.8h20.4c0-2.7-0.9-4.9-2.5-6.6C423.1,30.6,420.5,29.9,417.5,29.9z M426,6l-7.8,11.4
		h-4.8L419.4,6H426z"/>
</g>
<g>
	<g>
		<path fill="#E83181" stroke="#E83181" stroke-width="0.3294" d="M455.8,37.9c-0.5,0.5-1.2,0.7-2,0.7c-0.9,0-1.6-0.2-2-0.7
			c-0.5-0.5-0.9-1-0.9-1.6V26c0-0.3,0-0.7,0.2-0.9c0.2-0.3,0.3-0.5,0.7-0.9c0.2-0.2,0.5-0.3,0.9-0.5c0.3-0.2,0.7-0.2,1.2-0.2
			c0.3,0,0.7,0,1,0.2s0.7,0.3,0.9,0.5c0.2,0.2,0.5,0.5,0.7,0.9c0.2,0.3,0.2,0.7,0.2,0.9v1.6h-0.5V26c0-0.5-0.2-1-0.7-1.4
			s-1-0.5-1.6-0.5c-0.7,0-1.2,0.2-1.6,0.5c-0.5,0.3-0.7,0.9-0.7,1.4v10.3c0,0.5,0.2,1,0.7,1.4c0.5,0.3,1,0.5,1.6,0.5
			c0.7,0,1.2-0.2,1.6-0.5c0.5-0.3,0.7-0.9,0.7-1.4v-1.6h0.5v1.6C456.6,37,456.3,37.4,455.8,37.9z"/>
		<path fill="#E83181" stroke="#E83181" stroke-width="0.3294" d="M464.4,38.6v-15h0.5v1c0.3-0.3,0.5-0.5,1-0.7
			c0.3-0.2,0.9-0.3,1.2-0.3s0.7,0,1,0.2c0.3,0.2,0.7,0.3,0.9,0.5c0.2,0.2,0.5,0.5,0.7,0.9c0.2,0.3,0.2,0.7,0.2,1h-0.5
			c0-0.3,0-0.5-0.2-0.9c-0.2-0.2-0.3-0.5-0.5-0.7c-0.2-0.2-0.5-0.3-0.7-0.5c-0.3-0.2-0.5-0.2-0.9-0.2c-0.7,0-1.2,0.2-1.6,0.5
			c-0.5,0.3-0.7,0.9-0.7,1.4v12.6h-0.5L464.4,38.6L464.4,38.6z"/>
		<path fill="#E83181" stroke="#E83181" stroke-width="0.3294" d="M481.6,37.9c-0.5,0.5-1.2,0.7-2,0.7c-0.9,0-1.6-0.2-2-0.7
			s-0.9-1-0.9-1.6V26c0-0.3,0-0.7,0.2-0.9c0.2-0.3,0.3-0.5,0.7-0.9c0.2-0.2,0.5-0.3,0.9-0.5c0.3-0.2,0.7-0.2,1.2-0.2
			c0.3,0,0.7,0,1,0.2s0.7,0.3,0.9,0.5s0.5,0.5,0.7,0.9c0.2,0.3,0.2,0.7,0.2,0.9v4.6h-5v5.5c0,0.5,0.2,1,0.7,1.4
			c0.5,0.3,1,0.5,1.6,0.5c0.7,0,1.2-0.2,1.6-0.5c0.5-0.3,0.7-0.9,0.7-1.4v-1.6h0.5v1.6C482.4,37,482.1,37.4,481.6,37.9z M477.4,30.2
			h4.6V26c0-0.5-0.2-1-0.7-1.4c-0.5-0.3-1-0.5-1.6-0.5c-0.7,0-1.2,0.2-1.6,0.5c-0.5,0.3-0.7,0.9-0.7,1.4L477.4,30.2L477.4,30.2z
			 M478.9,22.8h-0.7l2-2h0.7L478.9,22.8z"/>
		<path fill="#E83181" stroke="#E83181" stroke-width="0.3294" d="M495.2,38.6v-1c-0.3,0.3-0.7,0.5-1,0.7c-0.3,0.2-0.9,0.2-1.2,0.2
			c-0.9,0-1.6-0.2-2-0.7c-0.5-0.5-0.9-1-0.9-1.6V32c0-0.3,0-0.7,0.2-0.9c0.2-0.3,0.3-0.5,0.7-0.9c0.2-0.2,0.5-0.3,0.9-0.5
			c0.3-0.2,0.7-0.2,1.2-0.2s0.9,0.2,1.2,0.3c0.3,0.2,0.7,0.3,1,0.7V26c0-0.5-0.2-1-0.7-1.4c-0.5-0.3-1-0.5-1.6-0.5
			c-0.7,0-1.2,0.2-1.6,0.5c-0.5,0.3-0.7,0.9-0.7,1.4v1.6h-0.5V26c0-0.3,0-0.7,0.2-0.9c0.2-0.3,0.3-0.5,0.7-0.9
			c0.2-0.2,0.5-0.3,0.9-0.5c0.3-0.2,0.7-0.2,1.2-0.2c0.3,0,0.7,0,1,0.2s0.7,0.3,0.9,0.5c0.2,0.2,0.5,0.5,0.7,0.9
			c0.2,0.3,0.2,0.7,0.2,0.9v12.6C495.9,38.6,495.2,38.6,495.2,38.6z M491.4,37.6c0.5,0.3,1,0.5,1.6,0.5c0.7,0,1.2-0.2,1.6-0.5
			c0.5-0.3,0.7-0.9,0.7-1.4v-4.2c0-0.5-0.2-1-0.7-1.4c-0.5-0.3-1-0.5-1.6-0.5c-0.7,0-1.2,0.2-1.6,0.5c-0.5,0.3-0.7,0.9-0.7,1.4v4.2
			C490.9,36.8,491.1,37.2,491.4,37.6z"/>
		<path fill="#E83181" stroke="#E83181" stroke-width="0.3294" d="M507.3,38.6c-0.3,0-0.7,0-1-0.2c-0.3-0.2-0.7-0.3-0.9-0.5
			c-0.3-0.2-0.5-0.5-0.7-0.9c-0.2-0.3-0.2-0.7-0.2-1V23.9h-1.6v-0.5h1.6v-3.7h0.5v3.7h2.3v0.5H505v12.1c0,0.5,0.2,1,0.7,1.4
			c0.5,0.3,1,0.5,1.6,0.5L507.3,38.6L507.3,38.6z"/>
		<path fill="#E83181" stroke="#E83181" stroke-width="0.3294" d="M519.1,37.9c-0.5,0.5-1.2,0.7-2,0.7s-1.6-0.2-2-0.7
			s-0.9-1-0.9-1.6V26c0-0.3,0-0.7,0.2-0.9c0.2-0.3,0.3-0.5,0.7-0.9c0.2-0.2,0.5-0.3,0.9-0.5c0.3-0.2,0.7-0.2,1.2-0.2
			c0.3,0,0.7,0,1,0.2s0.7,0.3,0.9,0.5s0.5,0.5,0.7,0.9c0.2,0.3,0.2,0.7,0.2,0.9v4.6h-5v5.5c0,0.5,0.2,1,0.7,1.4
			c0.5,0.3,1,0.5,1.6,0.5c0.7,0,1.2-0.2,1.6-0.5c0.5-0.3,0.7-0.9,0.7-1.4v-1.6h0.5v1.6C519.8,37,519.6,37.4,519.1,37.9z M514.8,30.2
			h4.6V26c0-0.5-0.2-1-0.7-1.4c-0.5-0.4-1-0.5-1.6-0.5c-0.7,0-1.2,0.2-1.6,0.5c-0.5,0.3-0.7,0.9-0.7,1.4L514.8,30.2L514.8,30.2z"/>
		<path fill="#E83181" stroke="#E83181" stroke-width="0.3294" d="M532.4,37.9c-0.5,0.5-1.2,0.7-2,0.7c-0.9,0-1.6-0.2-2-0.7
			s-0.9-1-0.9-1.6V23.7h0.5v12.6c0,0.5,0.2,1,0.7,1.4c0.5,0.3,1,0.5,1.6,0.5c0.7,0,1.2-0.2,1.6-0.5c0.5-0.3,0.7-0.9,0.7-1.4V23.7
			h0.5v12.6C533.3,37,532.9,37.4,532.4,37.9z"/>
		<path fill="#E83181" stroke="#E83181" stroke-width="0.3294" d="M541,38.6v-15h0.5v1c0.3-0.3,0.5-0.5,1-0.7
			c0.3-0.2,0.9-0.3,1.2-0.3s0.7,0,1,0.2s0.7,0.3,0.9,0.5s0.5,0.5,0.7,0.9c0.2,0.3,0.2,0.7,0.2,1h-0.5c0-0.3,0-0.5-0.2-0.9
			c-0.2-0.2-0.3-0.5-0.5-0.7s-0.5-0.3-0.7-0.5c-0.3-0.2-0.5-0.2-0.9-0.2c-0.7,0-1.2,0.2-1.6,0.5c-0.5,0.3-0.7,0.9-0.7,1.4v12.6h-0.5
			L541,38.6L541,38.6z"/>
	</g>
</g>
<g>
	<path fill="#E83181" stroke="#E83181" stroke-width="0.3294" d="M455.9,63.2v-1c-0.3,0.3-0.7,0.5-1,0.7c-0.3,0.2-0.9,0.2-1.2,0.2
		c-0.9,0-1.6-0.2-2-0.7c-0.5-0.5-0.9-1-0.9-1.6V50.5c0-0.3,0-0.7,0.2-0.9c0.2-0.3,0.3-0.5,0.7-0.9c0.2-0.2,0.5-0.3,0.9-0.5
		c0.3-0.2,0.7-0.2,1.2-0.2c0.5,0,0.9,0.2,1.2,0.3c0.3,0.2,0.7,0.3,1,0.7V43h0.5v20.3H455.9z M452.1,62.1c0.5,0.3,1,0.5,1.6,0.5
		c0.7,0,1.2-0.2,1.6-0.5c0.5-0.3,0.7-0.9,0.7-1.4V50.4c0-0.5-0.2-1-0.7-1.4c-0.5-0.4-1-0.5-1.6-0.5c-0.7,0-1.2,0.2-1.6,0.5
		c-0.5,0.3-0.7,0.9-0.7,1.4v10.5C451.4,61.4,451.8,61.7,452.1,62.1z"/>
	<path fill="#E83181" stroke="#E83181" stroke-width="0.3294" d="M464.2,46.4v-4.1h0.5v4.2L464.2,46.4L464.2,46.4z"/>
	<path fill="#E83181" stroke="#E83181" stroke-width="0.3294" d="M477.4,62.6c-0.5,0.5-1.2,0.7-2,0.7c-0.9,0-1.6-0.2-2-0.7
		c-0.5-0.5-0.9-1-0.9-1.6V50.6c0-0.3,0-0.7,0.2-0.9c0.2-0.3,0.3-0.5,0.7-0.9c0.2-0.2,0.5-0.3,0.9-0.5c0.3-0.2,0.7-0.2,1.2-0.2
		c0.3,0,0.7,0,1,0.2c0.3,0.2,0.7,0.3,0.9,0.5s0.5,0.5,0.7,0.9c0.2,0.4,0.2,0.7,0.2,0.9v4.6h-5v5.7c0,0.5,0.2,1,0.7,1.4
		c0.5,0.3,1,0.5,1.6,0.5c0.7,0,1.2-0.2,1.6-0.5c0.5-0.3,0.7-0.9,0.7-1.4v-1.6h0.5v1.6C478.3,61.6,477.9,62.1,477.4,62.6z
		 M473.2,54.6h4.6v-4.2c0-0.5-0.2-1-0.7-1.4c-0.5-0.3-1-0.5-1.6-0.5c-0.7,0-1.2,0.2-1.6,0.5c-0.5,0.3-0.7,0.9-0.7,1.4L473.2,54.6
		L473.2,54.6z M474.7,47.4H474l2-2h0.7L474.7,47.4z"/>
	<path fill="#E83181" stroke="#E83181" stroke-width="0.3294" d="M487.9,63.2l-2.5-15h0.5l2.2,13.2c0.3-2.2,0.9-4.4,1.2-6.6
		c0.3-2.2,0.7-4.4,1.2-6.6h0.5l-2.5,15H487.9z"/>
	<path fill="#E83181" stroke="#E83181" stroke-width="0.3294" d="M502.7,62.6c-0.5,0.5-1.2,0.7-2,0.7c-0.9,0-1.6-0.2-2-0.7
		c-0.5-0.5-0.9-1-0.9-1.6V50.6c0-0.3,0-0.7,0.2-0.9c0.2-0.3,0.3-0.5,0.7-0.9c0.2-0.2,0.5-0.3,0.9-0.5c0.3-0.2,0.7-0.2,1.2-0.2
		c0.3,0,0.7,0,1,0.2c0.3,0.2,0.7,0.3,0.9,0.5c0.2,0.2,0.5,0.5,0.7,0.9c0.2,0.3,0.2,0.7,0.2,0.9v4.6h-5v5.7c0,0.5,0.2,1,0.7,1.4
		c0.5,0.3,1,0.5,1.6,0.5c0.7,0,1.2-0.2,1.6-0.5c0.5-0.3,0.7-0.9,0.7-1.4v-1.6h0.5v1.6C503.6,61.6,503.2,62.1,502.7,62.6z
		 M498.4,54.6h4.6v-4.2c0-0.5-0.2-1-0.7-1.4c-0.5-0.4-1-0.5-1.6-0.5c-0.7,0-1.2,0.2-1.6,0.5c-0.5,0.3-0.7,0.9-0.7,1.4L498.4,54.6
		L498.4,54.6z M500,47.4h-0.7l2-2h0.7L500,47.4z"/>
	<path fill="#E83181" stroke="#E83181" stroke-width="0.3294" d="M511.4,63.2v-15h0.5v0.9c0.3-0.3,0.5-0.5,1-0.7
		c0.3-0.2,0.9-0.3,1.2-0.3s0.7,0,1,0.2c0.3,0.2,0.7,0.3,0.9,0.5c0.2,0.2,0.5,0.5,0.7,0.9c0.2,0.3,0.2,0.7,0.2,0.9v12.6h-0.3V50.5
		c0-0.5-0.2-1-0.7-1.4c-0.5-0.4-1-0.5-1.6-0.5c-0.7,0-1.2,0.2-1.6,0.5c-0.5,0.3-0.7,0.9-0.7,1.4v12.6L511.4,63.2L511.4,63.2z"/>
	<path fill="#E83181" stroke="#E83181" stroke-width="0.3294" d="M529.5,62.6c-0.5,0.5-1.2,0.7-2,0.7s-1.6-0.2-2-0.7
		c-0.5-0.5-0.9-1-0.9-1.6V50.6c0-0.3,0-0.7,0.2-0.9c0.2-0.3,0.3-0.5,0.7-0.9c0.2-0.2,0.5-0.3,0.9-0.5c0.3-0.2,0.7-0.2,1.2-0.2
		c0.3,0,0.7,0,1,0.2c0.3,0.2,0.7,0.3,0.9,0.5c0.2,0.2,0.5,0.5,0.7,0.9c0.2,0.3,0.2,0.7,0.2,0.9v4.6h-5v5.7c0,0.5,0.2,1,0.7,1.4
		c0.5,0.3,1,0.5,1.6,0.5c0.7,0,1.2-0.2,1.6-0.5c0.5-0.3,0.7-0.9,0.7-1.4v-1.6h0.5v1.6C530.4,61.6,530.1,62.1,529.5,62.6z
		 M525.3,54.6h4.6v-4.2c0-0.5-0.2-1-0.7-1.4c-0.5-0.4-1-0.5-1.6-0.5c-0.7,0-1.2,0.2-1.6,0.5c-0.5,0.3-0.7,0.9-0.7,1.4L525.3,54.6
		L525.3,54.6z"/>
	<path fill="#E83181" stroke="#E83181" stroke-width="0.3294" d="M538.1,63.2v-15h0.5v0.9c0.3-0.3,0.5-0.5,1-0.7
		c0.3-0.2,0.9-0.3,1.2-0.3c0.5,0,1,0.2,1.6,0.3c0.5,0.3,0.9,0.5,1,1c0.2-0.3,0.5-0.7,1-1c0.5-0.3,1-0.3,1.6-0.3c0.3,0,0.7,0,1,0.2
		c0.3,0.2,0.7,0.3,0.9,0.5c0.3,0.2,0.5,0.5,0.7,0.9c0.2,0.3,0.2,0.7,0.2,0.9v12.6H548V50.5c0-0.3,0-0.5-0.2-0.7
		c-0.2-0.2-0.3-0.5-0.5-0.7c-0.2-0.2-0.5-0.3-0.7-0.3c-0.3-0.2-0.5-0.2-0.9-0.2c-0.7,0-1.2,0.2-1.6,0.5c-0.5,0.3-0.7,0.9-0.7,1.4
		v12.6H543V50.5c0-0.5-0.2-1-0.7-1.4s-1-0.5-1.6-0.5c-0.3,0-0.5,0-0.9,0.2c-0.3,0.2-0.5,0.2-0.7,0.3c-0.2,0.2-0.3,0.3-0.5,0.7
		c-0.2,0.2-0.2,0.5-0.2,0.7v12.6L538.1,63.2L538.1,63.2L538.1,63.2z"/>
	<path fill="#E83181" stroke="#E83181" stroke-width="0.3294" d="M561.4,62.6c-0.5,0.5-1.2,0.7-2,0.7c-0.9,0-1.6-0.2-2-0.7
		c-0.5-0.5-0.9-1-0.9-1.6V50.6c0-0.3,0-0.7,0.2-0.9c0.2-0.3,0.3-0.5,0.7-0.9c0.2-0.2,0.5-0.3,0.9-0.5c0.3-0.2,0.7-0.2,1.2-0.2
		c0.3,0,0.7,0,1,0.2c0.3,0.2,0.7,0.3,0.9,0.5s0.5,0.5,0.7,0.9c0.2,0.3,0.2,0.7,0.2,0.9v4.6h-5v5.7c0,0.5,0.2,1,0.7,1.4
		c0.5,0.3,1,0.5,1.6,0.5c0.7,0,1.2-0.2,1.6-0.5c0.5-0.3,0.7-0.9,0.7-1.4v-1.6h0.5v1.6C562.3,61.6,562.1,62.1,561.4,62.6z
		 M557.3,54.6h4.6v-4.2c0-0.5-0.2-1-0.7-1.4c-0.5-0.3-1-0.5-1.6-0.5c-0.7,0-1.2,0.2-1.6,0.5c-0.5,0.3-0.7,0.9-0.7,1.4L557.3,54.6
		L557.3,54.6z"/>
	<path fill="#E83181" stroke="#E83181" stroke-width="0.3294" d="M570.3,63.2v-15h0.5v0.9c0.3-0.3,0.5-0.5,1-0.7
		c0.3-0.2,0.9-0.3,1.2-0.3s0.7,0,1,0.2c0.3,0.2,0.7,0.3,0.9,0.5c0.2,0.2,0.5,0.5,0.7,0.9c0.2,0.3,0.2,0.7,0.2,0.9v12.6h-0.5V50.5
		c0-0.5-0.2-1-0.7-1.4c-0.5-0.3-1-0.5-1.6-0.5c-0.7,0-1.2,0.2-1.6,0.5c-0.5,0.3-0.7,0.9-0.7,1.4v12.6L570.3,63.2L570.3,63.2
		L570.3,63.2z"/>
	<path fill="#E83181" stroke="#E83181" stroke-width="0.3294" d="M587,63.2c-0.3,0-0.7,0-1-0.2c-0.3-0.2-0.7-0.3-0.9-0.5
		c-0.3-0.2-0.5-0.5-0.7-0.9c-0.2-0.3-0.2-0.7-0.2-1V48.6h-1.6v-0.5h1.6v-3.7h0.5v3.7h2.3v0.5h-2.3v12.3c0,0.5,0.2,1,0.7,1.4
		c0.5,0.3,1,0.5,1.6,0.5L587,63.2L587,63.2z"/>
	<path fill="#E83181" stroke="#E83181" stroke-width="0.3294" d="M594.1,59.4h0.5v1.6c0,0.5,0.2,1,0.7,1.4c0.5,0.3,1,0.5,1.6,0.5
		c0.7,0,1.2-0.2,1.6-0.5c0.5-0.3,0.7-0.9,0.7-1.4v-3c0-0.3,0-0.5-0.2-0.9c-0.2-0.3-0.3-0.5-0.7-0.7c-0.2-0.2-0.3-0.2-0.5-0.3
		c-0.2,0-0.5-0.2-0.7-0.3l0,0l0,0l0,0c0,0,0,0-0.2,0h-0.1l0,0c-0.3-0.2-0.7-0.3-0.9-0.3c-0.2-0.2-0.5-0.2-0.7-0.3
		c-0.3-0.2-0.5-0.5-0.7-0.9c-0.2-0.3-0.3-0.7-0.3-1v-2.7c0-0.3,0-0.7,0.2-0.9c0.2-0.3,0.3-0.5,0.7-0.9c0.2-0.2,0.5-0.3,0.9-0.5
		c0.3-0.2,0.7-0.2,1.2-0.2c0.3,0,0.7,0,1,0.2c0.3,0.2,0.7,0.3,0.9,0.5c0.2,0.2,0.5,0.5,0.7,0.9c0.2,0.3,0.2,0.7,0.2,0.9v1.6h-0.7
		v-1.6c0-0.5-0.2-1-0.7-1.4c-0.5-0.3-1-0.5-1.6-0.5c-0.7,0-1.2,0.2-1.6,0.5c-0.5,0.3-0.7,0.9-0.7,1.4v2.5c0,0.7,0.3,1.2,0.9,1.6
		c0.2,0.2,0.3,0.2,0.7,0.3c0.2,0.2,0.5,0.2,0.7,0.3h0.2c0.2,0,0.2,0,0.2,0s0,0,0.2,0c0.2,0.2,0.5,0.2,0.7,0.3c0.2,0,0.3,0.2,0.7,0.3
		c0.4,0.1,0.7,0.5,0.9,0.9c0.2,0.3,0.3,0.7,0.3,1v3c0,0.3,0,0.7-0.2,0.9c-0.2,0.3-0.3,0.5-0.7,0.7c-0.2,0.2-0.5,0.3-0.9,0.5
		c-0.3,0.2-0.7,0.2-1,0.2c-0.9,0-1.6-0.2-2-0.7c-0.5-0.5-0.9-1-0.9-1.6v-1.3H594.1z"/>
</g>
<rect x="616.1" y="0.2" fill="#E83181" width="4.9" height="79.7"/>
<rect x="0" y="0.2" fill="#623D91" width="4.9" height="79.7"/>
<g>
	<path fill="#BFBFBF" d="M25.5,63.5V29.8h-5.4v-6.1h12.5v39.7h-7.1V63.5z M29.4,8.7c1.2,0,2.2,0.5,3,1.4c0.9,0.9,1.4,1.8,1.4,3
		c0,1.2-0.5,2.2-1.4,3c-0.9,0.9-1.8,1.4-3,1.4s-2.2-0.5-3-1.4c-1-0.9-1.4-1.8-1.4-3c0-1.2,0.3-2.2,1.2-3C27,9.2,28,8.7,29.4,8.7z"/>
	<path fill="#BFBFBF" d="M74.2,63.5V40.4c0-4.2-0.7-7.3-1.8-8.9C71,29.9,69,29,66,29c-1.6,0-3.2,0.5-5,1.6c-1.6,1-3,2.2-4.1,3.6
		v29.5h-7.1V23.9h4.9l2.2,5C59.2,25,63,23,68.2,23c8.7,0,13,5.2,13,15.8v24.6L74.2,63.5L74.2,63.5L74.2,63.5z"/>
	<path fill="#BFBFBF" d="M87,61.2l2.5-6.8c3.9,2.5,7.1,3.9,9.4,3.9c4.4,0,6.6-1.8,6.6-5.5c0-2.7-2-4.9-6.2-6.8
		c-3.2-1.6-5.4-2.5-6.6-3.4c-1.2-0.9-2-1.6-2.9-2.5c-0.9-1-1.6-2-1.8-3c-0.3-1.2-0.7-2.3-0.7-3.6c0-3.2,1.2-5.7,3.6-7.6
		c2.3-1.8,5.4-2.7,9.3-2.7c2.9,0,6.6,0.9,11,2.7l-2,6.6c-2.9-2.2-5.5-3.4-8.4-3.4c-1.6,0-3,0.3-4.2,1.2c-1.2,0.9-1.6,1.8-1.6,3
		c0,2.5,1.6,4.6,4.4,5.7l5,2.3c3,1.4,5.4,3,6.8,4.9c1.4,1.8,2.2,4.1,2.2,6.8c0,3.6-1.2,6.4-3.7,8.4c-2.5,2-5.9,3-10.5,3
		C94.7,64.2,90.8,63.2,87,61.2z"/>
	<path fill="#BFBFBF" d="M121.5,29.3h-4.6v-5.5h4.6v-8.2l7.1-2.7v11h11v5.5h-11V49c0,3.4,0.5,5.7,1.6,7.1c1.2,1.4,2.9,2.2,5.4,2.2
		c1.8,0,3.7-0.5,5.5-1.4l1,6.2c-2.9,0.7-6.1,1.2-9.6,1.2c-3.2,0-5.7-1.2-8-3.6c-2.2-2.3-3.2-5.2-3.2-8.7L121.5,29.3L121.5,29.3z"/>
	<path fill="#BFBFBF" d="M169.9,59.1c-2.7,3.6-7.1,5.2-12.8,5.2c-3,0-5.7-1.2-8.1-3.4c-2.3-2.2-3.4-5-3.4-8.4
		c0-4.1,1.6-7.5,5.2-10.3c3.6-2.7,8-4.2,13.5-4.2c1.6,0,3.2,0.3,5,1c0-6.4-2.9-9.6-8.6-9.6c-4.4,0-7.8,1.2-10.1,3.6l-3-5.9
		c1.4-1,3.2-2,5.5-2.9c2.3-0.9,4.6-1.2,6.8-1.2c5.7,0,10,1.4,12.5,3.9c2.5,2.7,3.9,6.8,3.9,12.5v14.2c0,3.6,1,5.7,3,6.9v3.9
		c-2.9,0-5-0.3-6.4-1.2C171.6,62.3,170.6,60.9,169.9,59.1z M169.2,44c-2.2-0.5-3.7-0.7-4.8-0.7c-3.6,0-6.4,0.9-8.7,2.7
		c-2.2,1.8-3.4,4.1-3.4,6.4c0,4.1,2.3,6.2,7.3,6.2c3.6,0,6.8-1.6,9.4-5V44C169,44,169.2,44,169.2,44z"/>
	<path fill="#BFBFBF" d="M210.3,63.5V40.4c0-4.2-0.7-7.3-1.8-8.9c-1.4-1.6-3.4-2.5-6.4-2.5c-1.6,0-3.2,0.5-5,1.6
		c-1.6,1-3,2.2-4.1,3.6v29.5h-7.1V23.9h4.9l2.2,5c2.3-3.9,6.1-5.9,11.4-5.9c8.7,0,13,5.2,13,15.8v24.6L210.3,63.5L210.3,63.5
		L210.3,63.5z"/>
	<path fill="#BFBFBF" d="M228.3,29.3h-4.6v-5.5h4.6v-8.2l7.1-2.7v11h11v5.5h-11V49c0,3.4,0.5,5.7,1.6,7.1c1.2,1.4,2.9,2.2,5.4,2.2
		c1.8,0,3.7-0.5,5.5-1.4l1,6.2c-2.9,0.7-6.1,1.2-9.6,1.2c-3.2,0-5.7-1.2-8-3.6c-2.2-2.3-3.2-5.2-3.2-8.7L228.3,29.3L228.3,29.3z"/>
</g>
</svg>
