<?xml version="1.0" encoding="utf-8"?>
<!-- Generator: Adobe Illustrator 17.1.0, SVG Export Plug-In . SVG Version: 6.00 Build 0)  -->
<!DOCTYPE svg PUBLIC "-//W3C//DTD SVG 1.1 Tiny//EN" "http://www.w3.org/Graphics/SVG/1.1/DTD/svg11-tiny.dtd">
<svg version="1.1" baseProfile="tiny" id="Layer_1" xmlns="http://www.w3.org/2000/svg" xmlns:xlink="http://www.w3.org/1999/xlink"
	 x="0px" y="0px" viewBox="0 0 48.401 39.334" xml:space="preserve">
<path fill="#FFFFFF" d="M48.401,4.656c-1.781,0.79-3.694,1.324-5.703,1.564c2.05-1.229,3.625-3.175,4.366-5.494
	c-1.919,1.138-4.044,1.964-6.306,2.41C38.947,1.206,36.366,0,33.51,0c-5.484,0-9.93,4.446-9.93,9.93
	c0,0.778,0.088,1.536,0.257,2.263C15.584,11.779,8.267,7.825,3.369,1.818C2.515,3.284,2.025,4.99,2.025,6.81
	c0,3.445,1.753,6.484,4.418,8.265c-1.628-0.052-3.159-0.498-4.498-1.242c-0.001,0.041-0.001,0.083-0.001,0.125
	c0,4.811,3.423,8.825,7.966,9.737c-0.833,0.227-1.711,0.348-2.616,0.348c-0.64,0-1.262-0.062-1.868-0.178
	c1.264,3.945,4.931,6.816,9.276,6.896c-3.399,2.663-7.68,4.251-12.332,4.251c-0.802,0-1.592-0.047-2.369-0.139
	c4.395,2.817,9.614,4.461,15.222,4.461c18.265,0,28.253-15.131,28.253-28.253c0-0.43-0.01-0.859-0.029-1.285
	C45.386,8.397,47.07,6.648,48.401,4.656z"/>
</svg>
